<?xml version="1.0" encoding="UTF-8"?>
<svg xmlns="http://www.w3.org/2000/svg" xmlns:xlink="http://www.w3.org/1999/xlink" width="3905.61" height="3905.61" viewBox="0 0 3905.61 3905.61">
<defs>
<clipPath id="clip-0">
<path clip-rule="nonzero" d="M 0 0 L 3905.609375 0 L 3905.609375 3905.609375 L 0 3905.609375 Z M 0 0 "/>
</clipPath>
<clipPath id="clip-1">
<path clip-rule="nonzero" d="M 180 720 L 3580 720 L 3580 3217 L 180 3217 Z M 180 720 "/>
</clipPath>
<clipPath id="clip-2">
<path clip-rule="evenodd" d="M 2568.308594 2549.359375 C 2568.308594 2549.359375 2720.171875 2473.421875 2790.488281 2616.859375 C 2860.800781 2760.28125 2506.441406 2841.839844 2408 2945.890625 C 2309.570312 3049.960938 2168.96875 2976.839844 1943.980469 3111.828125 C 1718.988281 3246.828125 1547.441406 3227.140625 1460.25 3184.949219 C 1373.070312 3142.769531 1344.949219 3097.769531 1375.878906 2985.28125 C 1406.820312 2872.78125 1398.390625 2912.148438 1164.960938 2948.71875 C 931.539062 2985.28125 1021.511719 2757.46875 1103.070312 2726.539062 C 1103.070312 2726.539062 1052.449219 2836.210938 1128.378906 2867.148438 C 1204.320312 2898.089844 1443.371094 2855.910156 1330.878906 2732.160156 C 1218.378906 2608.421875 1125.578125 2546.550781 934.339844 2698.410156 C 743.101562 2850.28125 484.351562 2839.019531 484.351562 2839.019531 C 484.351562 2839.019531 934.332031 2816.519531 939.957031 2428.421875 C 945.582031 2040.320312 788.082031 2349.660156 484.347656 2344.039062 C 180.609375 2338.421875 180.609375 2338.421875 180.609375 2338.421875 C 180.609375 2338.421875 669.945312 2355.289062 866.8125 2051.550781 C 1063.679688 1747.820312 641.828125 1624.070312 484.335938 1697.199219 C 484.335938 1697.199219 633.363281 1610.011719 754.296875 1655.011719 C 875.226562 1700.011719 968.035156 1823.75 973.660156 1885.621094 C 979.285156 1947.488281 1530.511719 1660.640625 1254.898438 1446.898438 C 979.289062 1233.160156 855.546875 1452.53125 855.546875 1452.53125 C 855.546875 1452.53125 759.929688 1266.910156 1114.28125 1272.53125 C 1468.640625 1278.160156 1395.519531 1081.300781 1676.75 1041.921875 C 1957.988281 1002.550781 1907.359375 1165.671875 1986.109375 1148.800781 C 2064.859375 1131.921875 2407.96875 1120.671875 2216.71875 878.808594 C 2025.480469 636.941406 1800.5 853.488281 1800.5 853.488281 C 1800.5 853.488281 1828.628906 712.871094 2073.300781 721.308594 C 2317.96875 729.75 2317.988281 774.738281 2337.671875 946.289062 C 2357.351562 1117.851562 2528.921875 1148.78125 2762.351562 1123.46875 C 2995.78125 1098.160156 3217.960938 985.660156 3352.949219 940.660156 C 3487.949219 895.671875 3639.808594 935.039062 3555.441406 1075.660156 C 3471.078125 1216.28125 2779.25 2231.539062 2787.679688 2372.160156 C 2796.121094 2512.78125 2568.308594 2549.359375 2568.308594 2549.359375 "/>
</clipPath>
<linearGradient id="linear-pattern-0" gradientUnits="userSpaceOnUse" x1="-0.690621" y1="0" x2="1.364765" y2="0" gradientTransform="matrix(888.002, 1688, -1688, 888.002, 1702.68, 1324.62)">
<stop offset="0" stop-color="rgb(96.46759%, 52.865601%, 12.838745%)" stop-opacity="1"/>
<stop offset="0.25" stop-color="rgb(96.46759%, 52.865601%, 12.838745%)" stop-opacity="1"/>
<stop offset="0.3125" stop-color="rgb(96.46759%, 52.865601%, 12.838745%)" stop-opacity="1"/>
<stop offset="0.328125" stop-color="rgb(96.46759%, 52.865601%, 12.838745%)" stop-opacity="1"/>
<stop offset="0.335938" stop-color="rgb(96.46759%, 52.865601%, 12.838745%)" stop-opacity="1"/>
<stop offset="0.339844" stop-color="rgb(96.424866%, 52.351379%, 13.168335%)" stop-opacity="1"/>
<stop offset="0.34375" stop-color="rgb(96.382141%, 51.835632%, 13.494873%)" stop-opacity="1"/>
<stop offset="0.347656" stop-color="rgb(96.339417%, 51.333618%, 13.41095%)" stop-opacity="1"/>
<stop offset="0.351562" stop-color="rgb(96.298218%, 50.831604%, 13.328552%)" stop-opacity="1"/>
<stop offset="0.355469" stop-color="rgb(96.255493%, 50.320435%, 13.389587%)" stop-opacity="1"/>
<stop offset="0.359375" stop-color="rgb(96.212769%, 49.806213%, 13.450623%)" stop-opacity="1"/>
<stop offset="0.363281" stop-color="rgb(96.150208%, 49.11499%, 13.787842%)" stop-opacity="1"/>
<stop offset="0.367188" stop-color="rgb(96.087646%, 48.422241%, 14.120483%)" stop-opacity="1"/>
<stop offset="0.371094" stop-color="rgb(95.848083%, 47.738647%, 14.355469%)" stop-opacity="1"/>
<stop offset="0.375" stop-color="rgb(95.608521%, 47.055054%, 14.587402%)" stop-opacity="1"/>
<stop offset="0.378906" stop-color="rgb(95.089722%, 46.658325%, 14.871216%)" stop-opacity="1"/>
<stop offset="0.382812" stop-color="rgb(94.572449%, 46.263123%, 15.151978%)" stop-opacity="1"/>
<stop offset="0.386719" stop-color="rgb(94.198608%, 45.701599%, 15.779114%)" stop-opacity="1"/>
<stop offset="0.390625" stop-color="rgb(93.824768%, 45.13855%, 16.398621%)" stop-opacity="1"/>
<stop offset="0.394531" stop-color="rgb(93.453979%, 44.580078%, 16.97998%)" stop-opacity="1"/>
<stop offset="0.398438" stop-color="rgb(93.083191%, 44.021606%, 17.552185%)" stop-opacity="1"/>
<stop offset="0.402344" stop-color="rgb(92.715454%, 43.487549%, 17.784119%)" stop-opacity="1"/>
<stop offset="0.40625" stop-color="rgb(92.349243%, 42.955017%, 18.011475%)" stop-opacity="1"/>
<stop offset="0.410156" stop-color="rgb(91.966248%, 42.414856%, 18.365479%)" stop-opacity="1"/>
<stop offset="0.414062" stop-color="rgb(91.584778%, 41.874695%, 18.716431%)" stop-opacity="1"/>
<stop offset="0.417969" stop-color="rgb(91.05835%, 41.333008%, 19.203186%)" stop-opacity="1"/>
<stop offset="0.421875" stop-color="rgb(90.534973%, 40.792847%, 19.682312%)" stop-opacity="1"/>
<stop offset="0.425781" stop-color="rgb(90.048218%, 40.322876%, 20.204163%)" stop-opacity="1"/>
<stop offset="0.429687" stop-color="rgb(89.561462%, 39.852905%, 20.718384%)" stop-opacity="1"/>
<stop offset="0.433594" stop-color="rgb(89.202881%, 39.305115%, 21.264648%)" stop-opacity="1"/>
<stop offset="0.4375" stop-color="rgb(88.845825%, 38.757324%, 21.80481%)" stop-opacity="1"/>
<stop offset="0.441406" stop-color="rgb(88.468933%, 38.226318%, 22.311401%)" stop-opacity="1"/>
<stop offset="0.445313" stop-color="rgb(88.092041%, 37.698364%, 22.81189%)" stop-opacity="1"/>
<stop offset="0.449219" stop-color="rgb(87.619019%, 37.243652%, 23.194885%)" stop-opacity="1"/>
<stop offset="0.453125" stop-color="rgb(87.149048%, 36.790466%, 23.573303%)" stop-opacity="1"/>
<stop offset="0.457031" stop-color="rgb(86.798096%, 36.248779%, 24.078369%)" stop-opacity="1"/>
<stop offset="0.460938" stop-color="rgb(86.448669%, 35.708618%, 24.575806%)" stop-opacity="1"/>
<stop offset="0.464844" stop-color="rgb(86.071777%, 35.153198%, 25.100708%)" stop-opacity="1"/>
<stop offset="0.46875" stop-color="rgb(85.696411%, 34.599304%, 25.616455%)" stop-opacity="1"/>
<stop offset="0.472656" stop-color="rgb(85.232544%, 34.030151%, 26.211548%)" stop-opacity="1"/>
<stop offset="0.476562" stop-color="rgb(84.770203%, 33.460999%, 26.792908%)" stop-opacity="1"/>
<stop offset="0.480469" stop-color="rgb(84.402466%, 33.050537%, 27.185059%)" stop-opacity="1"/>
<stop offset="0.484375" stop-color="rgb(84.037781%, 32.640076%, 27.571106%)" stop-opacity="1"/>
<stop offset="0.488281" stop-color="rgb(83.584595%, 32.087708%, 28.088379%)" stop-opacity="1"/>
<stop offset="0.492188" stop-color="rgb(83.131409%, 31.536865%, 28.593445%)" stop-opacity="1"/>
<stop offset="0.496094" stop-color="rgb(82.765198%, 31.109619%, 29.129028%)" stop-opacity="1"/>
<stop offset="0.5" stop-color="rgb(82.398987%, 30.680847%, 29.658508%)" stop-opacity="1"/>
<stop offset="0.503906" stop-color="rgb(81.918335%, 30.084229%, 30.149841%)" stop-opacity="1"/>
<stop offset="0.507812" stop-color="rgb(81.440735%, 29.490662%, 30.630493%)" stop-opacity="1"/>
<stop offset="0.511719" stop-color="rgb(80.961609%, 28.947449%, 31.202698%)" stop-opacity="1"/>
<stop offset="0.515625" stop-color="rgb(80.485535%, 28.405762%, 31.764221%)" stop-opacity="1"/>
<stop offset="0.519531" stop-color="rgb(80.044556%, 27.984619%, 32.380676%)" stop-opacity="1"/>
<stop offset="0.523438" stop-color="rgb(79.603577%, 27.565002%, 32.989502%)" stop-opacity="1"/>
<stop offset="0.527344" stop-color="rgb(79.23584%, 27.009583%, 33.543396%)" stop-opacity="1"/>
<stop offset="0.53125" stop-color="rgb(78.868103%, 26.457214%, 34.086609%)" stop-opacity="1"/>
<stop offset="0.535156" stop-color="rgb(78.361511%, 25.918579%, 34.584045%)" stop-opacity="1"/>
<stop offset="0.539062" stop-color="rgb(77.854919%, 25.382996%, 35.069275%)" stop-opacity="1"/>
<stop offset="0.542969" stop-color="rgb(77.285767%, 24.932861%, 35.617065%)" stop-opacity="1"/>
<stop offset="0.546875" stop-color="rgb(76.71814%, 24.484253%, 36.154175%)" stop-opacity="1"/>
<stop offset="0.550781" stop-color="rgb(76.249695%, 23.939514%, 36.723328%)" stop-opacity="1"/>
<stop offset="0.554688" stop-color="rgb(75.78125%, 23.394775%, 37.278748%)" stop-opacity="1"/>
<stop offset="0.558594" stop-color="rgb(75.325012%, 22.894287%, 37.738037%)" stop-opacity="1"/>
<stop offset="0.5625" stop-color="rgb(74.868774%, 22.393799%, 38.188171%)" stop-opacity="1"/>
<stop offset="0.566406" stop-color="rgb(74.403381%, 21.983337%, 38.73291%)" stop-opacity="1"/>
<stop offset="0.570312" stop-color="rgb(73.937988%, 21.574402%, 39.268494%)" stop-opacity="1"/>
<stop offset="0.574219" stop-color="rgb(73.526001%, 21.109009%, 39.810181%)" stop-opacity="1"/>
<stop offset="0.578125" stop-color="rgb(73.112488%, 20.645142%, 40.344238%)" stop-opacity="1"/>
<stop offset="0.582031" stop-color="rgb(72.694397%, 20.233154%, 40.853882%)" stop-opacity="1"/>
<stop offset="0.585938" stop-color="rgb(72.27478%, 19.824219%, 41.355896%)" stop-opacity="1"/>
<stop offset="0.589844" stop-color="rgb(71.713257%, 19.406128%, 41.908264%)" stop-opacity="1"/>
<stop offset="0.59375" stop-color="rgb(71.151733%, 18.991089%, 42.451477%)" stop-opacity="1"/>
<stop offset="0.597656" stop-color="rgb(70.726013%, 18.640137%, 42.991638%)" stop-opacity="1"/>
<stop offset="0.601562" stop-color="rgb(70.300293%, 18.29071%, 43.527222%)" stop-opacity="1"/>
<stop offset="0.605469" stop-color="rgb(69.859314%, 17.823792%, 44.024658%)" stop-opacity="1"/>
<stop offset="0.609375" stop-color="rgb(69.416809%, 17.359924%, 44.512939%)" stop-opacity="1"/>
<stop offset="0.613281" stop-color="rgb(68.922424%, 16.891479%, 44.995117%)" stop-opacity="1"/>
<stop offset="0.617188" stop-color="rgb(68.426514%, 16.427612%, 45.469666%)" stop-opacity="1"/>
<stop offset="0.621094" stop-color="rgb(67.980957%, 16.040039%, 45.922852%)" stop-opacity="1"/>
<stop offset="0.625" stop-color="rgb(67.5354%, 15.653992%, 46.366882%)" stop-opacity="1"/>
<stop offset="0.628906" stop-color="rgb(66.984558%, 15.306091%, 46.806335%)" stop-opacity="1"/>
<stop offset="0.632812" stop-color="rgb(66.435242%, 14.958191%, 47.238159%)" stop-opacity="1"/>
<stop offset="0.636719" stop-color="rgb(65.951538%, 14.610291%, 47.709656%)" stop-opacity="1"/>
<stop offset="0.640625" stop-color="rgb(65.467834%, 14.265442%, 48.176575%)" stop-opacity="1"/>
<stop offset="0.644531" stop-color="rgb(65.05127%, 13.928223%, 48.641968%)" stop-opacity="1"/>
<stop offset="0.648438" stop-color="rgb(64.631653%, 13.592529%, 49.101257%)" stop-opacity="1"/>
<stop offset="0.652344" stop-color="rgb(64.175415%, 13.153076%, 49.511719%)" stop-opacity="1"/>
<stop offset="0.65625" stop-color="rgb(63.717651%, 12.716675%, 49.914551%)" stop-opacity="1"/>
<stop offset="0.660156" stop-color="rgb(63.102722%, 12.385559%, 50.3479%)" stop-opacity="1"/>
<stop offset="0.664062" stop-color="rgb(62.489319%, 12.055969%, 50.773621%)" stop-opacity="1"/>
<stop offset="0.667969" stop-color="rgb(61.997986%, 11.737061%, 51.243591%)" stop-opacity="1"/>
<stop offset="0.671875" stop-color="rgb(61.505127%, 11.421204%, 51.707458%)" stop-opacity="1"/>
<stop offset="0.675781" stop-color="rgb(61.038208%, 11.077881%, 52.113342%)" stop-opacity="1"/>
<stop offset="0.679688" stop-color="rgb(60.571289%, 10.736084%, 52.511597%)" stop-opacity="1"/>
<stop offset="0.683594" stop-color="rgb(60.05249%, 10.476685%, 52.810669%)" stop-opacity="1"/>
<stop offset="0.6875" stop-color="rgb(59.535217%, 10.220337%, 53.105164%)" stop-opacity="1"/>
<stop offset="0.691406" stop-color="rgb(59.014893%, 9.968567%, 53.398132%)" stop-opacity="1"/>
<stop offset="0.695312" stop-color="rgb(58.493042%, 9.719849%, 53.686523%)" stop-opacity="1"/>
<stop offset="0.699219" stop-color="rgb(57.901001%, 9.579468%, 53.968811%)" stop-opacity="1"/>
<stop offset="0.703125" stop-color="rgb(57.30896%, 9.440613%, 54.249573%)" stop-opacity="1"/>
<stop offset="0.707031" stop-color="rgb(56.689453%, 9.513855%, 54.515076%)" stop-opacity="1"/>
<stop offset="0.710938" stop-color="rgb(56.066895%, 9.588623%, 54.779053%)" stop-opacity="1"/>
<stop offset="0.714844" stop-color="rgb(55.445862%, 9.73053%, 55.041504%)" stop-opacity="1"/>
<stop offset="0.71875" stop-color="rgb(54.821777%, 9.873962%, 55.302429%)" stop-opacity="1"/>
<stop offset="0.722656" stop-color="rgb(54.304504%, 9.965515%, 55.543518%)" stop-opacity="1"/>
<stop offset="0.726562" stop-color="rgb(53.785706%, 10.058594%, 55.784607%)" stop-opacity="1"/>
<stop offset="0.730469" stop-color="rgb(53.250122%, 10.171509%, 55.940247%)" stop-opacity="1"/>
<stop offset="0.734375" stop-color="rgb(52.714539%, 10.28595%, 56.09436%)" stop-opacity="1"/>
<stop offset="0.738281" stop-color="rgb(52.035522%, 10.455322%, 56.14624%)" stop-opacity="1"/>
<stop offset="0.742188" stop-color="rgb(51.356506%, 10.624695%, 56.19812%)" stop-opacity="1"/>
<stop offset="0.746094" stop-color="rgb(50.704956%, 10.792542%, 56.219482%)" stop-opacity="1"/>
<stop offset="0.75" stop-color="rgb(50.054932%, 10.960388%, 56.239319%)" stop-opacity="1"/>
<stop offset="0.753906" stop-color="rgb(49.554443%, 11.090088%, 56.254578%)" stop-opacity="1"/>
<stop offset="0.757812" stop-color="rgb(49.053955%, 11.218262%, 56.271362%)" stop-opacity="1"/>
<stop offset="0.761719" stop-color="rgb(48.518372%, 11.357117%, 56.288147%)" stop-opacity="1"/>
<stop offset="0.765625" stop-color="rgb(47.982788%, 11.495972%, 56.304932%)" stop-opacity="1"/>
<stop offset="0.769531" stop-color="rgb(47.390747%, 11.647034%, 56.323242%)" stop-opacity="1"/>
<stop offset="0.773438" stop-color="rgb(46.800232%, 11.799622%, 56.341553%)" stop-opacity="1"/>
<stop offset="0.777344" stop-color="rgb(46.304321%, 11.927795%, 56.358337%)" stop-opacity="1"/>
<stop offset="0.78125" stop-color="rgb(45.808411%, 12.055969%, 56.373596%)" stop-opacity="1"/>
<stop offset="0.785156" stop-color="rgb(45.365906%, 12.17041%, 56.387329%)" stop-opacity="1"/>
<stop offset="0.789062" stop-color="rgb(44.921875%, 12.284851%, 56.401062%)" stop-opacity="1"/>
<stop offset="0.792969" stop-color="rgb(44.442749%, 12.666321%, 56.573486%)" stop-opacity="1"/>
<stop offset="0.796875" stop-color="rgb(43.962097%, 13.044739%, 56.744385%)" stop-opacity="1"/>
<stop offset="0.800781" stop-color="rgb(43.461609%, 13.551331%, 56.993103%)" stop-opacity="1"/>
<stop offset="0.804688" stop-color="rgb(42.961121%, 14.053345%, 57.240295%)" stop-opacity="1"/>
<stop offset="0.808594" stop-color="rgb(42.483521%, 14.372253%, 57.37915%)" stop-opacity="1"/>
<stop offset="0.8125" stop-color="rgb(42.004395%, 14.68811%, 57.518005%)" stop-opacity="1"/>
<stop offset="0.816406" stop-color="rgb(41.537476%, 14.923096%, 57.608032%)" stop-opacity="1"/>
<stop offset="0.820312" stop-color="rgb(41.070557%, 15.158081%, 57.698059%)" stop-opacity="1"/>
<stop offset="0.828125" stop-color="rgb(40.937805%, 15.223694%, 57.723999%)" stop-opacity="1"/>
<stop offset="0.84375" stop-color="rgb(40.805054%, 15.290833%, 57.749939%)" stop-opacity="1"/>
<stop offset="0.875" stop-color="rgb(40.805054%, 15.290833%, 57.749939%)" stop-opacity="1"/>
<stop offset="1" stop-color="rgb(40.805054%, 15.290833%, 57.749939%)" stop-opacity="1"/>
</linearGradient>
</defs>
<path fill-rule="evenodd" fill="rgb(96.128845%, 72.314453%, 10.003662%)" fill-opacity="1" d="M 3135.75 1061.179688 C 3338.238281 850.25 2823.578125 1170.859375 2570.46875 1002.121094 C 2317.359375 833.378906 2502.96875 681.511719 2249.859375 639.328125 C 1996.75 597.140625 1650.828125 799.628906 1650.828125 799.628906 C 1650.828125 799.628906 2114.871094 614.019531 1971.441406 892.441406 C 1828.011719 1170.859375 1701.449219 774.320312 1482.089844 1027.429688 C 1262.71875 1280.539062 984.304688 1305.859375 984.304688 1305.859375 C 984.304688 1305.859375 1574.898438 1550.53125 1279.601562 1592.71875 C 984.304688 1634.898438 604.632812 1643.339844 604.632812 1643.339844 C 604.632812 1643.339844 1034.929688 1812.078125 781.8125 1879.570312 C 528.703125 1947.070312 444.332031 1963.949219 646.820312 2107.378906 C 849.308594 2250.800781 326.210938 2090.5 343.085938 2267.679688 C 359.960938 2444.859375 891.496094 2444.859375 781.8125 2579.851562 C 672.132812 2714.839844 1245.851562 2588.289062 1321.78125 2655.78125 C 1397.71875 2723.28125 3144.191406 1339.601562 3135.75 1061.179688 "/>
<g clip-path="url(#clip-1)">
<g clip-path="url(#clip-2)">
<path fill-rule="nonzero" fill="url(#linear-pattern-0)" d="M 2889.996094 -788.378906 L -894.761719 1202.660156 L 930.421875 4672.148438 L 4715.183594 2681.113281 Z M 2889.996094 -788.378906 "/>
</g>
</g>
<path fill-rule="evenodd" fill="rgb(93.069458%, 13.748169%, 13.632202%)" fill-opacity="1" d="M 484.316406 2471.480469 C 484.316406 2471.480469 732.367188 2306.960938 736.582031 2496.789062 C 740.800781 2686.621094 437.910156 2859.578125 437.910156 2859.578125 C 437.910156 2859.578125 933.589844 2572.730469 916.714844 2657.101562 C 899.835938 2741.460938 648.835938 2863.800781 648.835938 2863.800781 C 648.835938 2863.800781 724.769531 2937.628906 866.089844 2762.558594 C 1007.410156 2587.488281 1104.441406 2541.089844 1125.53125 2661.320312 C 1146.621094 2781.539062 857.652344 3005.128906 857.652344 3005.128906 C 857.652344 3005.128906 889.292969 3083.171875 1017.960938 2981.921875 C 1146.621094 2880.679688 1201.46875 2762.558594 1184.589844 2684.519531 C 1167.71875 2606.46875 1207.789062 2606.46875 1325.910156 2659.199219 C 1444.039062 2711.941406 1376.53125 2920.761719 1260.519531 2986.140625 C 1144.511719 3051.53125 1144.511719 3051.53125 1144.511719 3051.53125 C 1144.511719 3051.53125 1353.351562 3095.828125 1427.171875 3057.871094 C 1500.988281 3019.898438 1418.738281 3258.25 1709.820312 3220.289062 C 2000.890625 3182.308594 2068.390625 3040.988281 2068.390625 3040.988281 C 2068.390625 3040.988281 2163.308594 3093.71875 2294.089844 3074.738281 C 2424.859375 3055.761719 2517.691406 2994.570312 2536.671875 2899.660156 C 2555.648438 2804.738281 2384.800781 2688.730469 2372.148438 2688.730469 C 2359.488281 2688.730469 2475.5 2735.128906 2437.53125 2846.921875 C 2399.570312 2958.710938 2140.128906 2971.371094 2089.5 2914.421875 C 2038.878906 2857.46875 2144.351562 2756.21875 2144.351562 2756.21875 C 2144.351562 2756.21875 1941.851562 2830.039062 1950.289062 2887 C 1958.730469 2943.949219 1889.121094 3011.449219 1688.738281 3034.648438 C 1488.359375 3057.851562 1657.101562 3040.980469 1737.25 2922.859375 C 1817.398438 2804.738281 1686.640625 2654.96875 1686.640625 2654.96875 C 1686.640625 2654.96875 1973.5 2678.171875 2013.570312 2589.578125 C 2053.648438 2500.988281 1612.828125 2378.640625 1553.769531 2260.519531 C 1494.710938 2142.398438 1794.238281 1750.078125 2064.21875 1615.078125 C 2334.210938 1480.089844 2612.628906 1446.339844 2612.628906 1353.53125 C 2612.628906 1260.730469 2393.269531 1269.160156 2367.960938 1269.160156 C 2342.648438 1269.160156 2494.511719 1222.75 2477.640625 1011.820312 C 2460.769531 800.898438 2019.929688 897.921875 1903.921875 1079.320312 C 1903.921875 1079.320312 2062.121094 914.800781 2249.839844 940.109375 C 2437.570312 965.421875 2562.011719 1104.640625 2319.449219 1229.078125 C 2076.878906 1353.53125 2100.078125 1119.398438 1954.550781 1191.121094 C 1809.011719 1262.828125 1809.011719 1290.25 1809.011719 1290.25 C 1809.011719 1290.25 1823.769531 1170.019531 1714.078125 1172.128906 C 1604.398438 1174.238281 1566.441406 1262.828125 1566.441406 1262.828125 C 1566.441406 1262.828125 1722.519531 1153.148438 1716.191406 1305.019531 C 1709.871094 1456.878906 1671.898438 1539.140625 1576.980469 1509.609375 C 1482.058594 1480.078125 1368.160156 1490.628906 1296.449219 1560.230469 C 1296.449219 1560.230469 1501.050781 1513.828125 1553.78125 1621.398438 C 1606.511719 1728.96875 1467.300781 1904.039062 1399.800781 1807.019531 C 1332.300781 1709.988281 1245.828125 1697.328125 1182.550781 1682.570312 C 1119.269531 1667.808594 872.484375 1604.53125 794.441406 1724.75 C 794.441406 1724.75 1066.539062 1680.460938 1098.179688 1794.359375 C 1129.820312 1908.261719 916.773438 1973.660156 902.007812 1973.660156 C 887.246094 1973.660156 819.753906 2142.398438 771.238281 2245.761719 C 722.722656 2349.109375 484.316406 2471.480469 484.316406 2471.480469 "/>
<path fill-rule="evenodd" fill="rgb(78.164673%, 12.966919%, 14.334106%)" fill-opacity="1" d="M 600.441406 2429.109375 C 706.980469 2397.789062 848.699219 2378.558594 851.328125 2496.789062 C 851.832031 2519.410156 846.289062 2541.789062 836.230469 2563.671875 C 854.773438 2563.429688 877.816406 2566.148438 909.144531 2576.320312 C 955.195312 2591.25 968.636719 2620.878906 967.285156 2652.328125 C 1044.511719 2582.300781 1098.441406 2573.699219 1119.71875 2637.71875 C 1166.578125 2634.148438 1183.308594 2678.019531 1186.53125 2732.011719 C 1188.390625 2715.03125 1187.738281 2699.078125 1184.589844 2684.519531 C 1167.71875 2606.46875 1207.789062 2606.46875 1325.910156 2659.199219 C 1340.140625 2665.558594 1351.660156 2674.199219 1360.738281 2684.558594 C 1424.96875 2620.871094 1547.921875 2662.941406 1573.988281 2819.300781 C 1595.691406 2949.539062 1348.570312 3028.050781 1205.738281 3062.269531 C 1273.351562 3072.378906 1379 3082.640625 1427.171875 3057.871094 C 1452.488281 3044.851562 1459.449219 3064.328125 1469.410156 3094.039062 C 1557.699219 3094.550781 1643.550781 3092.691406 1702.230469 3085.921875 C 1877.71875 3065.671875 1938.46875 3018.421875 2012.71875 3042.039062 C 2022.980469 3045.308594 2040.699219 3047.671875 2063.789062 3048.949219 C 2067 3043.890625 2068.390625 3040.988281 2068.390625 3040.988281 C 2068.390625 3040.988281 2075.101562 3044.71875 2087.398438 3049.828125 C 2186.269531 3051.988281 2352.28125 3038.101562 2478.671875 2998.691406 C 2508.738281 2971.710938 2528.898438 2938.519531 2536.671875 2899.660156 C 2555.648438 2804.738281 2384.800781 2688.730469 2372.148438 2688.730469 C 2359.488281 2688.730469 2475.5 2735.128906 2437.53125 2846.921875 C 2399.570312 2958.710938 2140.128906 2971.371094 2089.5 2914.421875 C 2038.878906 2857.46875 2144.351562 2756.21875 2144.351562 2756.21875 C 2144.351562 2756.21875 1941.851562 2830.039062 1950.289062 2887 C 1958.730469 2943.949219 1889.121094 3011.449219 1688.738281 3034.648438 C 1488.359375 3057.851562 1657.101562 3040.980469 1737.25 2922.859375 C 1817.398438 2804.738281 1686.640625 2654.96875 1686.640625 2654.96875 C 1686.640625 2654.96875 1973.5 2678.171875 2013.570312 2589.578125 C 2053.648438 2500.988281 1612.828125 2378.640625 1553.769531 2260.519531 C 1494.710938 2142.398438 1794.238281 1750.078125 2064.21875 1615.078125 C 2334.210938 1480.089844 2612.628906 1446.339844 2612.628906 1353.53125 C 2612.628906 1260.730469 2393.269531 1269.160156 2367.960938 1269.160156 C 2358.839844 1269.160156 2372.699219 1263.140625 2393.390625 1245.589844 C 2269.96875 1286.320312 2122.730469 1309.429688 2061.621094 1303.171875 C 1954.46875 1292.199219 1861.640625 1349.578125 1811.019531 1415.390625 C 1760.398438 1481.199219 1649.03125 1619.558594 1628.78125 1590.878906 C 1608.53125 1562.199219 1556.21875 1541.941406 1438.101562 1541.941406 C 1421.371094 1541.941406 1404.441406 1545.03125 1387.699219 1550.320312 C 1449.378906 1549.578125 1524.691406 1562.058594 1553.78125 1621.398438 C 1606.511719 1728.96875 1467.300781 1904.039062 1399.800781 1807.019531 C 1338.210938 1718.480469 1260.828125 1700.199219 1199.679688 1686.460938 C 1194.550781 1692.148438 1191.75 1695.5 1191.75 1695.5 C 1191.75 1695.5 1276.109375 1695.5 1303.109375 1813.621094 C 1330.109375 1931.738281 1279.488281 1992.480469 1157.988281 1989.121094 C 1036.5 1985.738281 1046.628906 2043.109375 1124.25 2066.730469 C 1201.871094 2090.351562 1093.871094 2218.601562 982.503906 2248.96875 C 871.136719 2279.351562 911.632812 2127.480469 911.632812 2127.480469 C 911.632812 2127.480469 877.832031 2119.269531 829.527344 2115.410156 C 809.929688 2159.878906 789.273438 2207.328125 771.238281 2245.761719 C 744.273438 2303.199219 658.652344 2366.511719 587.90625 2411.429688 C 591.949219 2417.390625 596.136719 2423.289062 600.441406 2429.109375 "/>
<path fill-rule="evenodd" fill="rgb(58.175659%, 25.611877%, 65.054321%)" fill-opacity="1" d="M 972.246094 3230.988281 C 1076.730469 3221.339844 1327.941406 3142 1377.21875 3051 C 1413.78125 2983.5 1515.03125 3301.300781 1785.019531 3157.871094 C 2055 3014.441406 2040.941406 2975.070312 2040.941406 2975.070312 C 2040.941406 2975.070312 2426.238281 3081.929688 2488.109375 2924.441406 C 2549.988281 2766.949219 2538.738281 2778.199219 2538.738281 2778.199219 C 2538.738281 2778.199219 2735.609375 2814.75 2769.351562 2707.878906 C 2803.101562 2601.019531 2628.738281 2550.390625 2628.738281 2550.390625 C 2628.738281 2550.390625 2696.25 2406.941406 2758.121094 2345.070312 C 2819.988281 2283.199219 2983.109375 2122.890625 2983.109375 2080.710938 C 2983.109375 2038.53125 3025.300781 1996.351562 3016.859375 1866.980469 C 3008.429688 1737.621094 3104.050781 1712.308594 3039.359375 1602.621094 C 2974.679688 1492.941406 2985.929688 1417.011719 3014.050781 1355.140625 C 3042.179688 1293.269531 3115.300781 1304.511719 3330.449219 1197.640625 C 3545.589844 1090.769531 3594.800781 982.488281 3503.398438 958.589844 C 3412 934.679688 3111.078125 1059.828125 3132.171875 1014.828125 C 3153.269531 969.839844 3478.089844 848.898438 3559.648438 957.179688 C 3641.210938 1065.460938 3403.570312 1242.640625 3485.128906 1266.539062 C 3566.691406 1290.449219 3537.148438 1373.410156 3497.78125 1421.21875 C 3458.410156 1469.03125 3392.328125 1554.808594 3392.328125 1554.808594 C 3392.328125 1554.808594 3596.230469 1492.929688 3584.980469 1737.609375 C 3584.980469 1737.609375 3559.671875 1549.191406 3329.058594 1602.621094 C 3098.441406 1656.050781 3165.941406 1779.800781 3233.441406 1743.238281 C 3300.941406 1706.679688 3531.550781 1636.371094 3455.609375 1684.179688 C 3379.679688 1731.988281 3312.179688 1734.800781 3371.238281 1768.550781 C 3430.300781 1802.300781 3421.859375 1948.539062 3421.859375 1948.539062 C 3421.859375 1948.539062 3357.179688 1841.671875 3317.808594 1951.351562 C 3278.429688 2061.03125 3028.140625 2094.78125 3087.199219 2114.46875 C 3146.25 2134.148438 3329.070312 2069.480469 3399.378906 1989.328125 C 3469.679688 1909.171875 3521.710938 1840.269531 3656.699219 1896.519531 C 3791.699219 1952.761719 3677.800781 2101.820312 3677.800781 2101.820312 C 3677.800781 2101.820312 3712.960938 1987.921875 3630 1987.921875 C 3547.03125 1987.921875 3419.070312 2181.96875 3483.75 2226.96875 C 3548.441406 2271.96875 3472.519531 2286.039062 3413.460938 2252.289062 C 3354.398438 2218.539062 3250.339844 2241.050781 3180.039062 2333.851562 C 3109.730469 2426.660156 3101.289062 2429.46875 3101.289062 2429.46875 C 3101.289062 2429.46875 3244.71875 2241.039062 3177.21875 2207.300781 C 3109.730469 2173.539062 2859.429688 2212.921875 2971.921875 2294.480469 C 3084.410156 2376.039062 3151.921875 2350.71875 3084.410156 2530.710938 C 3016.921875 2710.710938 2980.359375 2705.078125 2980.359375 2705.078125 C 2980.359375 2705.078125 3098.480469 2751.480469 3046.449219 2840.070312 C 2994.429688 2928.660156 2694.910156 2918.820312 2590.859375 2955.378906 C 2486.800781 2991.941406 2430.550781 3022.878906 2475.550781 3035.53125 C 2520.550781 3048.191406 2685.070312 3093.171875 2586.640625 3185.980469 C 2488.199219 3278.789062 2320.871094 3253.480469 2320.871094 3253.480469 C 2320.871094 3253.480469 2581.011719 3247.859375 2467.109375 3152.238281 C 2353.210938 3056.609375 2076.199219 3159.261719 1935.578125 3215.511719 C 1794.960938 3271.761719 1706.929688 3172.550781 1409.648438 3238 C 1112.371094 3303.449219 961.160156 3258.71875 972.246094 3230.988281 "/>
<path fill-rule="evenodd" fill="rgb(37.767029%, 16.047668%, 55.162048%)" fill-opacity="1" d="M 1322.570312 3106.308594 C 1347.550781 3088.75 1366.859375 3070.128906 1377.21875 3051 C 1413.78125 2983.5 1515.03125 3301.300781 1785.019531 3157.871094 C 2055 3014.441406 2040.941406 2975.070312 2040.941406 2975.070312 C 2040.941406 2975.070312 2426.238281 3081.929688 2488.109375 2924.441406 C 2549.988281 2766.949219 2538.738281 2778.199219 2538.738281 2778.199219 C 2538.738281 2778.199219 2735.609375 2814.75 2769.351562 2707.878906 C 2803.101562 2601.019531 2628.738281 2550.390625 2628.738281 2550.390625 C 2628.738281 2550.390625 2696.25 2406.941406 2758.121094 2345.070312 C 2819.988281 2283.199219 2983.109375 2122.890625 2983.109375 2080.710938 C 2983.109375 2038.53125 3025.300781 1996.351562 3016.859375 1866.980469 C 3008.429688 1737.621094 3104.050781 1712.308594 3039.359375 1602.621094 C 2974.679688 1492.941406 2985.929688 1417.011719 3014.050781 1355.140625 C 3042.179688 1293.269531 3115.300781 1304.511719 3330.449219 1197.640625 C 3342.089844 1191.859375 3353.21875 1186.070312 3363.890625 1180.289062 C 3342.191406 1243.800781 3234.269531 1287.980469 3150.339844 1324.960938 C 3050.789062 1368.839844 3084.53125 1449.828125 3167.21875 1475.148438 C 3249.898438 1500.449219 3312.328125 1303.03125 3312.328125 1303.03125 C 3312.328125 1303.03125 3335.949219 1321.589844 3327.511719 1422.828125 C 3319.070312 1524.078125 3143.578125 1608.449219 3143.578125 1608.449219 C 3143.578125 1608.449219 3179.019531 1593.269531 3352.820312 1507.210938 C 3383.140625 1492.199219 3414.109375 1486.609375 3444.609375 1487.691406 C 3416.671875 1523.210938 3392.328125 1554.808594 3392.328125 1554.808594 C 3392.328125 1554.808594 3596.230469 1492.929688 3584.980469 1737.609375 C 3584.980469 1737.609375 3559.671875 1549.191406 3329.058594 1602.621094 C 3186.628906 1635.621094 3157.929688 1695.429688 3172.699219 1727.738281 C 3098.671875 1791.789062 3152.011719 1849.761719 3152.011719 1849.761719 C 3152.011719 1849.761719 3168.878906 1843.011719 3236.378906 1829.511719 C 3303.878906 1816.011719 3330.871094 1832.878906 3391.621094 1836.25 C 3397.738281 1836.601562 3404.621094 1836.449219 3412.140625 1835.929688 C 3425.351562 1888.078125 3421.859375 1948.539062 3421.859375 1948.539062 C 3421.859375 1948.539062 3357.179688 1841.671875 3317.808594 1951.351562 C 3278.429688 2061.03125 3028.140625 2094.78125 3087.199219 2114.46875 C 3146.25 2134.148438 3329.070312 2069.480469 3399.378906 1989.328125 C 3469.679688 1909.171875 3521.710938 1840.269531 3656.699219 1896.519531 C 3791.699219 1952.761719 3677.800781 2101.820312 3677.800781 2101.820312 C 3677.800781 2101.820312 3712.960938 1987.921875 3630 1987.921875 C 3547.03125 1987.921875 3419.070312 2181.96875 3483.75 2226.96875 C 3548.441406 2271.96875 3472.519531 2286.039062 3413.460938 2252.289062 C 3354.398438 2218.539062 3250.339844 2241.050781 3180.039062 2333.851562 C 3109.730469 2426.660156 3101.289062 2429.46875 3101.289062 2429.46875 C 3101.289062 2429.46875 3244.71875 2241.039062 3177.21875 2207.300781 C 3109.730469 2173.539062 2859.429688 2212.921875 2971.921875 2294.480469 C 3084.410156 2376.039062 3151.921875 2350.71875 3084.410156 2530.710938 C 3081.351562 2538.898438 3078.351562 2546.691406 3075.398438 2554.121094 C 3051.980469 2476.21875 2962.148438 2427.511719 2824.628906 2511.21875 C 2669.390625 2605.71875 2895.511719 2636.089844 2868.511719 2747.460938 C 2841.511719 2858.828125 2743.628906 2821.710938 2612.019531 2865.578125 C 2526.730469 2894.011719 2622.820312 2919.601562 2701.039062 2934.089844 C 2656.519531 2939.78125 2617.351562 2946.078125 2590.859375 2955.378906 C 2486.800781 2991.941406 2430.550781 3022.878906 2475.550781 3035.53125 C 2520.550781 3048.191406 2685.070312 3093.171875 2586.640625 3185.980469 C 2583.441406 3188.988281 2580.179688 3191.871094 2576.851562 3194.640625 C 2569.148438 3152.289062 2476.859375 3073.089844 2402.78125 3084.941406 C 2318.398438 3098.441406 2088.921875 3088.308594 2088.921875 3088.308594 C 2088.921875 3088.308594 1930.308594 3172.691406 1798.691406 3213.191406 C 1780.769531 3218.699219 1762.730469 3222.578125 1744.738281 3225 C 1703.148438 3219.648438 1656.070312 3213.929688 1597.800781 3214.78125 C 1539.851562 3199.199219 1488.429688 3171.410156 1451.078125 3138.941406 C 1413.839844 3106.550781 1364.171875 3102.140625 1322.570312 3106.308594 "/>
<path fill-rule="evenodd" fill="rgb(80.319214%, 8.866882%, 28.213501%)" fill-opacity="1" d="M 2361.789062 1283.359375 C 2361.789062 1283.359375 2625.441406 1253.828125 2579.039062 1312.890625 C 2532.640625 1371.949219 2437.71875 1439.449219 2357.570312 1367.730469 C 2277.410156 1296.019531 2195.148438 1317.121094 2129.769531 1338.210938 C 2064.378906 1359.300781 2064.378906 1359.300781 2064.378906 1359.300781 C 2064.378906 1359.300781 2222.570312 1315.011719 2235.230469 1393.050781 C 2247.890625 1471.089844 2163.511719 1498.511719 2123.441406 1460.539062 C 2083.371094 1422.578125 2058.050781 1390.941406 1984.230469 1412.03125 C 1910.398438 1433.121094 1910.398438 1433.121094 1910.398438 1433.121094 C 1910.398438 1433.121094 2043.289062 1378.28125 2045.398438 1464.761719 C 2047.511719 1551.238281 1931.5 1606.089844 1910.398438 1593.429688 C 1889.308594 1580.769531 1861.890625 1536.480469 1798.609375 1568.121094 C 1735.328125 1599.761719 1627.761719 1728.421875 1627.761719 1728.421875 C 1629.789062 1734.511719 1673.128906 1718.980469 1718.460938 1743.179688 C 1763.78125 1767.390625 1743.769531 1812.789062 1722.679688 1795.921875 C 1701.578125 1779.050781 1625.628906 1732.648438 1526.488281 1793.820312 C 1427.359375 1854.980469 1102.53125 2194.578125 1043.46875 2409.730469 C 1028.851562 2462.988281 1031.808594 2499.828125 1046.300781 2526.121094 C 1090.339844 2606.011719 1240.921875 2588.339844 1328.210938 2637.539062 C 1444.21875 2702.921875 1404.140625 2745.109375 1404.140625 2745.109375 C 1404.140625 2745.109375 1446.328125 2719.800781 1421.019531 2667.070312 C 1395.710938 2614.339844 1406.25 2605.898438 1469.53125 2610.121094 C 1532.808594 2614.339844 1695.21875 2654.429688 1676.238281 2778.878906 C 1657.25 2903.328125 1414.691406 2985.589844 1414.691406 2985.589844 C 1414.691406 2985.589844 1528.578125 3006.679688 1701.550781 2897 C 1874.511719 2787.320312 1952.558594 2831.621094 2003.179688 2928.648438 C 2053.800781 3025.679688 2091.769531 2802.101562 2268.949219 2768.339844 C 2446.121094 2734.601562 2513.621094 2949.738281 2298.480469 2945.519531 C 2083.328125 2941.300781 1986.308594 2970.839844 2159.269531 3008.800781 C 2332.21875 3046.769531 2614.859375 2975.058594 2543.148438 2856.941406 C 2471.441406 2738.820312 2403.941406 2688.191406 2538.929688 2671.320312 C 2673.929688 2654.449219 2576.898438 2679.761719 2610.648438 2726.160156 C 2644.398438 2772.558594 2817.359375 2608.039062 2682.371094 2578.511719 C 2547.371094 2548.988281 2543.148438 2705.058594 2391.289062 2671.320312 C 2239.421875 2637.570312 2125.511719 2776.789062 2117.078125 2646.011719 C 2108.640625 2515.230469 2530.5 1899.328125 2568.46875 1709.5 C 2606.441406 1519.660156 2716.121094 1426.851562 2785.71875 1439.511719 C 2855.328125 1452.160156 2893.300781 1496.460938 2893.300781 1496.460938 C 2893.300781 1496.460938 2832.128906 1420.53125 2884.859375 1386.78125 C 2937.589844 1353.03125 2996.648438 1344.589844 2996.648438 1344.589844 C 2996.648438 1344.589844 2889.089844 1380.449219 2924.949219 1315.058594 C 2960.808594 1249.679688 3127.851562 1260.570312 3091.578125 1220.148438 C 3055.308594 1179.730469 2850.820312 1323.78125 2789.960938 1338.269531 C 2729.089844 1352.75 2796.289062 1207.488281 2770.980469 1192.71875 C 2745.660156 1177.960938 2372.320312 1239.128906 2361.789062 1283.359375 "/>
<path fill-rule="evenodd" fill="rgb(71.876526%, 10.870361%, 17.189026%)" fill-opacity="1" d="M 1748.160156 1793.558594 C 1746.160156 1799.621094 1740.308594 1802.339844 1733.589844 1801.140625 C 1711.738281 1812.339844 1686.910156 1824.339844 1658.53125 1837.269531 C 1325.261719 1989.140625 1426.511719 2162.101562 1304.171875 2339.28125 C 1181.828125 2516.460938 1059.488281 2609.261719 1215.578125 2550.199219 C 1371.660156 2491.140625 1359.011719 2537.550781 1359.011719 2562.859375 C 1359.011719 2588.171875 1519.308594 2470.050781 1527.75 2524.890625 C 1536.191406 2579.738281 1633.210938 2512.238281 1641.648438 2588.171875 C 1650.089844 2664.101562 1793.519531 2537.550781 1801.949219 2621.921875 C 1810.390625 2706.289062 1871.558594 2626.140625 1814.609375 2695.738281 C 1757.660156 2765.351562 2042.410156 2657.78125 2025.539062 2731.601562 C 2008.660156 2805.421875 2078.269531 2826.519531 2078.269531 2826.519531 C 2078.269531 2826.519531 2118.351562 2735.820312 2320.839844 2699.960938 C 2364.75 2692.191406 2400.210938 2684.109375 2428.648438 2676.058594 C 2417.238281 2675.808594 2404.859375 2674.328125 2391.289062 2671.320312 C 2267.390625 2643.789062 2185.621094 2712.390625 2148.921875 2674.570312 C 2140.640625 2666.039062 2118.628906 2670.078125 2117.078125 2646.011719 C 2113.339844 2587.980469 2194.351562 2434.378906 2288.929688 2264.890625 C 2167.199219 2073.289062 2053.21875 1859.121094 2097.261719 1790.859375 C 2181.628906 1660.089844 2734.261719 1558.839844 2734.25 1217.148438 C 2734.25 1217.148438 2599.25 1432.289062 2451.609375 1432.289062 C 2303.960938 1432.289062 2088.820312 1499.789062 1966.480469 1579.941406 C 1856.941406 1651.710938 1963.78125 1679.53125 1748.160156 1793.558594 "/>
<path fill-rule="evenodd" fill="rgb(67.926025%, 11.184692%, 13.50708%)" fill-opacity="1" d="M 1309.300781 2313.070312 C 1309.300781 2313.070312 1482.230469 2057.851562 1638.320312 1912.308594 C 1794.410156 1766.769531 2045.410156 1587.480469 2104.46875 1557.949219 C 2163.53125 1528.421875 2420.859375 1435.609375 2463.050781 1435.609375 C 2505.230469 1435.609375 2621.25 1422.960938 2676.089844 1513.648438 C 2730.929688 1604.351562 2771 1802.621094 2741.480469 1977.691406 C 2711.941406 2152.761719 2587.5 2351.039062 2488.371094 2433.300781 L 2431.421875 2435.410156 L 2260.570312 2511.351562 L 2205.730469 2511.351562 C 2205.730469 2511.351562 1872.46875 2498.691406 1838.71875 2502.910156 C 1804.96875 2507.128906 1750.128906 2551.421875 1750.128906 2551.421875 L 1697.398438 2481.808594 L 1621.460938 2540.878906 C 1621.460938 2540.878906 1650.988281 2471.269531 1589.820312 2458.609375 C 1528.648438 2445.960938 1397.878906 2469.160156 1418.96875 2441.738281 C 1440.070312 2414.320312 1520.21875 2454.390625 1440.070312 2380.570312 C 1359.910156 2306.75 1283.980469 2363.699219 1283.980469 2363.699219 L 1309.300781 2313.070312 "/>
<path fill-rule="evenodd" fill="rgb(93.423462%, 11.938477%, 57.928467%)" fill-opacity="1" d="M 2435.878906 2391.078125 C 2435.878906 2391.078125 2532.910156 2464.910156 2524.46875 2538.730469 C 2516.039062 2612.550781 2516.039062 2612.550781 2516.039062 2612.550781 C 2516.039062 2612.550781 2655.25 2578.800781 2790.238281 2308.820312 C 2925.230469 2038.820312 3110.839844 1996.640625 3077.101562 1709.78125 C 3043.351562 1422.921875 3030.691406 1387.050781 2975.851562 1368.070312 C 2921 1349.078125 2809.199219 1308.988281 2627.800781 1384.929688 C 2446.398438 1460.859375 2459.058594 1490.390625 2463.28125 1562.101562 C 2467.488281 1633.820312 2657.328125 2043.019531 2435.878906 2391.078125 "/>
<path fill-rule="evenodd" fill="rgb(59.327698%, 10.705566%, 12.207031%)" fill-opacity="1" d="M 2435.878906 2391.078125 C 2435.878906 2391.078125 2458.039062 2407.941406 2480.25 2433.601562 L 2488.371094 2433.300781 C 2587.5 2351.039062 2711.941406 2152.761719 2741.480469 1977.691406 C 2771 1802.621094 2730.929688 1604.351562 2676.089844 1513.648438 C 2639.148438 1452.558594 2574.460938 1438.359375 2523.269531 1435.601562 C 2452.359375 1478.738281 2460.140625 1508.75 2463.28125 1562.101562 C 2467.488281 1633.820312 2657.328125 2043.019531 2435.878906 2391.078125 "/>
<path fill-rule="evenodd" fill="rgb(91.146851%, 5.441284%, 35.972595%)" fill-opacity="1" d="M 2480.941406 2434.390625 C 2504.980469 2462.371094 2528.839844 2500.539062 2524.46875 2538.730469 C 2516.039062 2612.550781 2516.039062 2612.550781 2516.039062 2612.550781 C 2516.039062 2612.550781 2655.25 2578.800781 2790.238281 2308.820312 C 2925.230469 2038.820312 3110.839844 1996.640625 3077.101562 1709.78125 C 3043.351562 1422.921875 3030.691406 1387.050781 2975.851562 1368.070312 C 2921 1349.078125 2809.199219 1308.988281 2627.800781 1384.929688 C 2488.058594 1443.421875 2463.488281 1474.378906 2461.488281 1518.300781 C 2478.570312 1518.949219 2498.011719 1514.960938 2520.199219 1505.148438 C 2520.199219 1505.148438 2659.410156 1306.878906 2828.148438 1496.710938 C 2996.898438 1686.539062 2684.738281 1604.28125 2748.011719 1635.921875 C 2811.289062 1667.558594 2980.039062 1743.488281 2939.960938 1804.671875 C 2899.878906 1865.839844 2872.460938 1960.75 2872.460938 1977.628906 C 2872.460938 1994.5 2838.71875 1922.769531 2826.058594 2019.808594 C 2813.398438 2116.828125 2739.578125 2201.199219 2739.578125 2201.199219 C 2739.578125 2201.199219 2705.828125 2348.851562 2674.191406 2361.511719 C 2642.550781 2374.171875 2499.128906 2350.960938 2482.25 2429 C 2481.859375 2430.820312 2481.410156 2432.609375 2480.941406 2434.390625 "/>
<path fill-rule="evenodd" fill="rgb(95.779419%, 43.360901%, 74.455261%)" fill-opacity="1" d="M 2594 2422.691406 C 2600.328125 2450.109375 2661.5 2410.03125 2686.808594 2359.410156 C 2712.121094 2308.78125 2872.421875 2140.039062 2878.75 1977.628906 C 2885.078125 1815.210938 2834.460938 1806.78125 2834.460938 1806.78125 C 2834.460938 1806.78125 2855.550781 1893.261719 2781.730469 2078.871094 C 2707.910156 2264.488281 2669.941406 2340.421875 2594 2422.691406 "/>
<path fill-rule="evenodd" fill="rgb(11.677551%, 12.29248%, 29.734802%)" fill-opacity="1" d="M 2307.308594 2633.738281 C 2323.128906 2650.609375 2496.089844 2670.648438 2491.871094 2533.550781 C 2487.648438 2396.449219 2418.050781 2395.390625 2418.050781 2395.390625 L 2464.449219 2379.570312 C 2464.449219 2379.570312 2529.828125 2406.988281 2540.378906 2497.691406 C 2550.929688 2588.390625 2536.160156 2592.609375 2536.160156 2592.609375 C 2536.160156 2592.609375 2723.859375 2428.058594 2791.359375 2314.160156 C 2858.851562 2200.261719 2867.289062 2189.710938 2867.289062 2189.710938 C 2867.289062 2189.710938 2734.398438 2248.78125 2609.960938 2215.019531 L 2628.941406 2162.289062 C 2628.941406 2162.289062 2755.5 2215.03125 2905.261719 2141.199219 L 2943.21875 2031.519531 C 2943.21875 2031.519531 2770.25 2101.121094 2700.648438 2037.839844 L 2696.429688 2006.199219 C 2696.429688 2006.199219 2936.878906 2069.480469 2957.980469 1942.921875 L 2979.070312 1839.558594 C 2979.070312 1839.558594 2858.820312 1820.550781 2770.230469 1847.96875 C 2681.628906 1875.390625 2681.628906 1875.390625 2681.628906 1875.390625 L 2696.398438 1810.011719 C 2696.398438 1810.011719 2934.230469 1770.460938 2993.289062 1804.738281 C 2993.289062 1804.738281 3065.558594 1738.300781 3014.941406 1670.800781 C 2964.320312 1603.300781 2791.359375 1618.070312 2740.730469 1653.929688 L 2730.191406 1615.960938 C 2730.191406 1615.960938 2941.109375 1548.460938 3033.929688 1622.289062 C 3033.929688 1622.289062 3059.230469 1535.808594 3008.609375 1512.609375 C 2957.988281 1489.410156 2837.761719 1430.351562 2702.769531 1472.53125 L 2704.878906 1421.910156 C 2704.878906 1421.910156 2949.550781 1377.621094 3023.378906 1476.75 C 3097.199219 1575.878906 3061.351562 1803.679688 3061.351562 1803.679688 C 3061.351562 1803.679688 2989.628906 2048.359375 2960.101562 2109.53125 C 2930.570312 2170.699219 2816.660156 2343.648438 2780.808594 2383.730469 C 2744.949219 2423.800781 2674.289062 2470.210938 2695.378906 2503.960938 C 2716.46875 2537.699219 2724.910156 2549.300781 2724.910156 2549.300781 C 2724.910156 2549.300781 2657.410156 2517.671875 2598.351562 2577.78125 C 2539.289062 2637.890625 2487.621094 2694.839844 2375.828125 2686.398438 C 2264.039062 2677.96875 2185.980469 2722.261719 2151.179688 2746.519531 C 2116.378906 2770.78125 2055.179688 2781.320312 2055.179688 2781.320312 C 2055.179688 2781.320312 2133.230469 2760.230469 2136.390625 2705.390625 C 2139.550781 2650.539062 2027.761719 2681.140625 1994.011719 2681.140625 C 1960.261719 2681.140625 1847.398438 2679.019531 1847.398438 2679.019531 C 1847.398438 2679.019531 1931.78125 2679.03125 1954.96875 2626.300781 C 1978.179688 2573.558594 1870.601562 2550.359375 1832.640625 2558.800781 C 1794.671875 2567.238281 1767.25 2626.300781 1642.800781 2617.859375 C 1642.800781 2617.859375 1706.078125 2604.148438 1728.230469 2575.671875 C 1750.378906 2547.191406 1759.871094 2495.511719 1759.871094 2495.511719 C 1759.871094 2495.511719 1624.878906 2581.988281 1542.609375 2567.21875 C 1542.609375 2567.21875 1713.460938 2491.289062 1728.230469 2459.660156 C 1743 2428.019531 1886.429688 2508.171875 2004.539062 2514.5 C 2122.671875 2520.820312 2174.339844 2491.289062 2203.871094 2495.511719 C 2233.398438 2499.730469 2232.351562 2506.058594 2232.351562 2506.058594 C 2232.351562 2506.058594 2142.699219 2551.398438 2149.03125 2595.699219 C 2155.351562 2640 2222.851562 2651.589844 2254.488281 2633.660156 C 2286.128906 2615.738281 2317.769531 2566.171875 2317.769531 2566.171875 C 2317.769531 2566.171875 2318.828125 2618.898438 2307.308594 2633.738281 "/>
<path fill-rule="evenodd" fill="rgb(11.677551%, 12.29248%, 29.734802%)" fill-opacity="1" d="M 1470.398438 2259.328125 C 1470.398438 2259.328125 1677.949219 2529.320312 1892.25 2536.058594 C 2106.558594 2542.820312 2276.988281 2497.261719 2430.539062 2412.890625 C 2584.101562 2328.511719 2636.410156 2195.210938 2685.339844 2092.269531 C 2734.28125 1989.339844 2720.789062 1775.050781 2673.550781 1663.679688 C 2626.289062 1552.308594 2570.609375 1491.558594 2536.859375 1481.441406 C 2503.109375 1471.308594 2185.878906 1572.558594 2086.320312 1634.988281 C 1986.761719 1697.421875 1758.96875 1862.789062 1664.46875 1952.21875 C 1569.96875 2041.648438 1450.171875 2217.148438 1470.398438 2259.328125 "/>
<path fill-rule="evenodd" fill="rgb(14.428711%, 24.467468%, 48.374939%)" fill-opacity="1" d="M 2019.289062 1753.050781 C 2019.289062 1753.050781 2426.378906 1516.820312 2352.558594 1586.421875 C 2278.730469 1656.03125 2141.628906 1780.46875 2221.78125 1757.269531 C 2301.929688 1734.070312 2339.898438 1759.378906 2327.25 1782.578125 C 2314.589844 1805.78125 2314.578125 1839.539062 2394.738281 1837.421875 C 2474.890625 1835.308594 2571.921875 1793.128906 2479.109375 1875.390625 C 2386.300781 1957.648438 2342.011719 2004.058594 2382.089844 1982.960938 C 2422.160156 1961.871094 2584.578125 1864.839844 2533.949219 1966.089844 C 2483.328125 2067.328125 2101.570312 2347.859375 2012.980469 2347.859375 C 1924.390625 2347.859375 1844.238281 2423.800781 1884.308594 2320.441406 C 1924.390625 2217.078125 1922.28125 2238.179688 1844.238281 2255.058594 C 1766.191406 2271.929688 1937.039062 2128.488281 1848.460938 2147.480469 C 1759.859375 2166.460938 1705.019531 2158.03125 1728.230469 2090.53125 C 1751.429688 2023.03125 1768.289062 2018.808594 1816.808594 1920.71875 C 1865.320312 1822.640625 2019.289062 1753.050781 2019.289062 1753.050781 "/>
<path fill-rule="evenodd" fill="rgb(8.676147%, 9.295654%, 16.023254%)" fill-opacity="1" d="M 1470.398438 2259.328125 C 1470.398438 2259.328125 1677.949219 2529.320312 1892.25 2536.058594 C 2106.558594 2542.820312 2276.988281 2497.261719 2430.539062 2412.890625 C 2584.101562 2328.511719 2636.410156 2195.210938 2685.339844 2092.269531 C 2734.28125 1989.339844 2720.789062 1775.050781 2673.550781 1663.679688 C 2626.289062 1552.308594 2570.609375 1491.558594 2536.859375 1481.441406 C 2503.109375 1471.308594 2185.878906 1572.558594 2086.320312 1634.988281 C 2060.660156 1651.078125 2026.46875 1674.03125 1988.238281 1700.730469 L 1987.671875 1796.621094 C 2027.039062 1760.058594 2603.578125 1450.699219 2471.390625 1585.691406 C 2339.210938 1720.679688 2198.589844 1774.121094 2297.03125 1737.558594 C 2395.460938 1701 2536.070312 1571.640625 2474.210938 1664.441406 C 2412.328125 1757.25 2274.519531 1858.488281 2429.210938 1810.691406 C 2583.878906 1762.871094 2507.949219 1880.988281 2482.640625 1906.300781 C 2457.328125 1931.621094 2689.351562 1824.738281 2627.480469 1902.089844 C 2565.609375 1979.429688 2510.769531 2032.859375 2510.769531 2032.859375 C 2510.769531 2032.859375 2349.058594 2402.679688 2104.390625 2439.238281 C 1859.710938 2475.800781 1983.460938 2357.679688 1966.578125 2380.179688 C 1949.710938 2402.679688 1758.46875 2554.550781 1811.898438 2444.859375 C 1865.339844 2335.179688 1966.578125 2293 1865.339844 2335.179688 C 1764.089844 2377.371094 1654.410156 2512.359375 1719.089844 2388.621094 C 1783.78125 2264.871094 1994.710938 2090.5 1910.339844 2135.511719 C 1825.960938 2180.511719 1564.410156 2374.558594 1668.46875 2245.191406 C 1772.53125 2115.820312 1786.589844 2065.199219 1786.589844 2065.199219 C 1786.589844 2065.199219 1778.160156 2121.441406 1752.839844 2084.878906 C 1727.53125 2048.320312 1896.269531 1871.148438 1893.460938 1826.148438 C 1892.800781 1815.660156 1890.320312 1796.609375 1886.878906 1773.570312 C 1801.25 1836.75 1714.308594 1905.050781 1664.46875 1952.21875 C 1569.96875 2041.648438 1450.171875 2217.148438 1470.398438 2259.328125 "/>
<path fill-rule="evenodd" fill="rgb(45.565796%, 79.322815%, 86.71875%)" fill-opacity="1" d="M 1678.390625 2093.128906 C 1627.769531 2120.128906 1534.960938 2212.941406 1565.339844 2233.191406 C 1595.710938 2253.441406 1806.640625 2131.949219 1879.199219 2059.378906 C 1951.75 1986.820312 1950.058594 1956.449219 1916.320312 1966.570312 C 1882.570312 1976.699219 1907.878906 1936.199219 1870.761719 1949.699219 C 1833.640625 1963.199219 1678.390625 2093.128906 1678.390625 2093.128906 "/>
<path fill-rule="evenodd" fill="rgb(18.553162%, 42.926025%, 67.321777%)" fill-opacity="1" d="M 1678.390625 2093.128906 C 1627.769531 2120.128906 1534.960938 2212.941406 1565.339844 2233.191406 C 1578.269531 2241.808594 1623.960938 2224.71875 1677.75 2196.660156 C 1700.730469 2172.078125 1745.980469 2137.398438 1778.378906 2120.019531 C 1836.03125 2089.078125 1716.5 2132.671875 1664.46875 2139.699219 C 1643.800781 2142.5 1658.21875 2118.640625 1683.710938 2088.699219 L 1678.390625 2093.128906 "/>
<path fill-rule="evenodd" fill="rgb(45.565796%, 79.322815%, 86.71875%)" fill-opacity="1" d="M 1614.269531 2302.371094 L 1705.390625 2214.621094 C 1705.390625 2214.621094 1599.078125 2320.941406 1624.398438 2339.5 C 1649.710938 2358.058594 1707.078125 2292.25 1811.699219 2211.25 C 1916.320312 2130.261719 2049.621094 2005.378906 2002.378906 2015.511719 C 1955.128906 2025.628906 1585.578125 2265.25 1585.578125 2282.121094 C 1585.578125 2299 1588.960938 2310.808594 1614.269531 2302.371094 "/>
<path fill-rule="evenodd" fill="rgb(18.553162%, 42.926025%, 67.321777%)" fill-opacity="1" d="M 1614.269531 2302.371094 L 1705.390625 2214.621094 C 1705.390625 2214.621094 1599.078125 2320.941406 1624.398438 2339.5 C 1638.710938 2349.988281 1663.269531 2333.5 1700.820312 2302.570312 C 1685.570312 2287.738281 1808.121094 2179.441406 1857.121094 2139.699219 C 1909.148438 2097.511719 1740.410156 2208.601562 1681.351562 2222.671875 C 1670.429688 2225.261719 1664.910156 2224.449219 1663.5 2221.199219 C 1617.390625 2253.058594 1585.578125 2277.179688 1585.578125 2282.121094 C 1585.578125 2299 1588.960938 2310.808594 1614.269531 2302.371094 "/>
<path fill-rule="evenodd" fill="rgb(45.565796%, 79.322815%, 86.71875%)" fill-opacity="1" d="M 2011.648438 2149.660156 C 2011.648438 2149.660156 1733.238281 2370.710938 1752.640625 2396.019531 C 1772.039062 2421.328125 1872.449219 2352.988281 1852.199219 2387.578125 C 1831.949219 2422.179688 1846.289062 2435.679688 1874.980469 2420.488281 C 1903.671875 2405.300781 2054.691406 2236.558594 2066.5 2205.339844 C 2078.308594 2174.128906 2028.53125 2142.058594 2011.648438 2149.660156 "/>
<path fill-rule="evenodd" fill="rgb(18.553162%, 42.926025%, 67.321777%)" fill-opacity="1" d="M 1897.179688 2244.128906 C 1822.949219 2307.539062 1741.859375 2381.96875 1752.640625 2396.019531 C 1772.039062 2421.328125 1872.449219 2352.988281 1852.199219 2387.578125 C 1831.949219 2422.179688 1846.289062 2435.679688 1874.980469 2420.488281 C 1880.300781 2417.671875 1889.839844 2409.558594 1901.910156 2398.039062 C 1898.910156 2390.679688 1892.949219 2386.488281 1885.230469 2389.300781 C 1869.769531 2394.921875 1954.148438 2300.011719 1978.050781 2266.261719 C 2001.960938 2232.511719 1869.78125 2316.878906 1827.601562 2333.761719 C 1798.5 2345.398438 1849.691406 2294.128906 1897.179688 2244.128906 "/>
<path fill-rule="evenodd" fill="rgb(45.565796%, 79.322815%, 86.71875%)" fill-opacity="1" d="M 2088.429688 2219.691406 C 2088.429688 2219.691406 1928.128906 2365.648438 1961.878906 2406.148438 C 1995.628906 2446.640625 2123.03125 2468.578125 2170.28125 2454.238281 C 2217.53125 2439.898438 2482.449219 2415.429688 2570.199219 2218 C 2657.941406 2020.578125 2671.441406 1939.578125 2627.570312 1929.460938 C 2583.699219 1919.328125 2303.578125 2069.519531 2312.019531 2045.890625 C 2320.460938 2022.261719 2595.511719 1899.078125 2603.949219 1848.460938 C 2612.378906 1797.839844 2384.578125 1949.710938 2254.648438 1969.949219 C 2124.71875 1990.199219 2009.980469 2030.710938 2021.789062 2066.140625 C 2033.601562 2101.570312 2088.429688 2219.691406 2088.429688 2219.691406 "/>
<path fill-rule="evenodd" fill="rgb(18.553162%, 42.926025%, 67.321777%)" fill-opacity="1" d="M 2336.21875 2026.441406 C 2405.140625 1983.03125 2596.921875 1890.601562 2603.949219 1848.460938 C 2604.550781 1844.828125 2603.898438 1842.269531 2602.199219 1840.601562 C 2483.5 1880.679688 2264.039062 2036.351562 2310.371094 2030.558594 C 2319.75 2029.390625 2328.359375 2027.980469 2336.21875 2026.441406 Z M 2428.53125 2002.449219 C 2408.328125 2011.53125 2389.128906 2020.148438 2372.371094 2027.429688 C 2385.46875 2023.050781 2405.789062 2013.089844 2428.53125 2002.449219 Z M 2061.539062 2245.46875 C 2017.449219 2289.261719 1937.019531 2376.320312 1961.878906 2406.148438 C 1995.628906 2446.640625 2123.03125 2468.578125 2170.28125 2454.238281 C 2217.53125 2439.898438 2482.449219 2415.429688 2570.199219 2218 C 2657.941406 2020.578125 2671.441406 1939.578125 2627.570312 1929.460938 C 2607.199219 1924.75 2535.898438 1954.609375 2466.199219 1985.589844 C 2517.628906 1964.128906 2568.398438 1951.480469 2571.070312 1995.980469 C 2576.128906 2080.351562 2479.109375 2327.539062 2308.679688 2337.671875 C 2138.25 2347.789062 2168.621094 2248.238281 2143.308594 2308.980469 C 2118 2369.730469 2091 2432.171875 2087.628906 2418.671875 C 2084.25 2405.160156 2129.808594 2202.679688 2092.691406 2290.421875 C 2055.558594 2378.171875 2021.820312 2435.539062 2033.628906 2373.109375 C 2041.359375 2332.261719 2057.738281 2271.929688 2061.539062 2245.46875 "/>
<path fill-rule="evenodd" fill="rgb(45.565796%, 79.322815%, 86.71875%)" fill-opacity="1" d="M 2190.53125 1867.019531 C 2190.53125 1867.019531 2607.320312 1568.351562 2560.070312 1617.289062 C 2512.828125 1666.21875 2438.578125 1738.78125 2453.769531 1728.660156 C 2468.949219 1718.53125 2615.761719 1629.101562 2587.070312 1667.910156 C 2558.378906 1706.71875 2479.078125 1765.78125 2497.640625 1765.78125 C 2516.210938 1765.78125 2630.949219 1689.851562 2615.761719 1735.398438 C 2600.570312 1780.960938 2430.140625 1878.828125 2339.019531 1900.769531 C 2247.898438 1922.699219 2231.019531 1902.449219 2293.460938 1873.769531 C 2355.898438 1845.089844 2433.519531 1796.148438 2391.328125 1799.519531 C 2349.148438 1802.898438 2177.03125 1937.898438 2190.53125 1867.019531 "/>
<path fill-rule="evenodd" fill="rgb(18.553162%, 42.926025%, 67.321777%)" fill-opacity="1" d="M 2317.480469 1776.820312 C 2435.769531 1693.351562 2589.808594 1586.488281 2560.070312 1617.289062 C 2512.828125 1666.21875 2438.578125 1738.78125 2453.769531 1728.660156 C 2468.949219 1718.53125 2615.761719 1629.101562 2587.070312 1667.910156 C 2558.378906 1706.71875 2479.078125 1765.78125 2497.640625 1765.78125 C 2516.210938 1765.78125 2630.949219 1689.851562 2615.761719 1735.398438 C 2607.628906 1759.78125 2555.070312 1799.128906 2493.980469 1833.808594 C 2491.53125 1829.21875 2484.351562 1828.191406 2469.078125 1833.28125 C 2415.289062 1851.210938 2452.210938 1818.511719 2485.960938 1754.179688 C 2519.710938 1689.851562 2402.640625 1791.089844 2432.171875 1732.03125 C 2461.699219 1672.980469 2317.21875 1777.378906 2317.21875 1777.378906 L 2317.480469 1776.820312 "/>
<path fill-rule="evenodd" fill="rgb(20.368958%, 50.804138%, 66.639709%)" fill-opacity="1" d="M 2549.929688 1767.46875 C 2514.5 1794.46875 2202.328125 2025.640625 2254.640625 2029.019531 C 2306.949219 2032.390625 2610.679688 1811.339844 2597.179688 1780.96875 C 2583.679688 1750.601562 2582 1740.46875 2549.929688 1767.46875 "/>
<path fill-rule="evenodd" fill="rgb(20.368958%, 50.804138%, 66.639709%)" fill-opacity="1" d="M 2568.488281 1948.019531 C 2497.621094 1976.710938 2274.890625 2083.019531 2337.320312 2101.578125 C 2399.75 2120.140625 2642.738281 1948.019531 2568.488281 1948.019531 "/>
<path fill-rule="evenodd" fill="rgb(20.368958%, 50.804138%, 66.639709%)" fill-opacity="1" d="M 2544.871094 2155.578125 C 2433.5 2322.628906 2384.570312 2361.441406 2306.949219 2354.691406 C 2229.320312 2347.941406 2266.449219 2339.5 2340.699219 2275.378906 C 2414.941406 2211.261719 2495.941406 2120.140625 2544.871094 2155.578125 "/>
<path fill-rule="evenodd" fill="rgb(6.266785%, 5.734253%, 5.047607%)" fill-opacity="1" d="M 1175.941406 2439.46875 C 1175.941406 2439.46875 1462.800781 2155.980469 1621.421875 1990.621094 C 1780.03125 1825.25 2053.398438 1599.140625 2299.761719 1524.890625 C 2546.121094 1450.648438 2562.988281 1477.640625 2586.621094 1508.019531 C 2610.238281 1538.390625 2694.609375 1619.390625 2714.859375 1818.5 C 2735.109375 2017.621094 2632.179688 2193.109375 2632.179688 2193.109375 C 2632.179688 2193.109375 2738.488281 1880.941406 2655.808594 1707.140625 C 2573.128906 1533.328125 2542.75 1494.519531 2502.261719 1499.578125 C 2461.761719 1504.640625 2127.648438 1609.261719 2063.53125 1683.511719 C 1999.410156 1757.761719 2058.46875 1695.328125 2058.46875 1695.328125 C 2058.46875 1695.328125 2078.71875 1690.261719 2097.28125 1757.761719 C 2115.839844 1825.261719 2132.710938 1904.558594 2217.089844 1982.191406 C 2217.089844 1982.191406 2149.578125 2218.421875 2426.320312 2380.410156 C 2426.320312 2380.410156 2244.078125 2404.03125 1980.851562 2154.300781 L 1935.289062 2135.738281 L 1947.101562 2118.871094 L 1921.789062 2115.488281 C 1921.789062 2115.488281 2006.160156 2056.429688 1970.71875 2056.429688 C 1935.289062 2056.429688 1908.289062 2064.871094 1908.289062 2064.871094 C 1908.289062 2064.871094 1938.660156 2000.75 1920.101562 1994 C 1893.128906 1984.191406 1811.25 1998.230469 1811.261719 1965.730469 C 1811.261719 1958.039062 1881.289062 1973.429688 1872.851562 1943.378906 C 1864.410156 1913.320312 1825.609375 1860.691406 1825.609375 1860.691406 C 1825.609375 1860.691406 1729.421875 1897.820312 1656.859375 2010.878906 C 1584.300781 2123.929688 1577.550781 2134.050781 1577.550781 2134.050781 L 1604.550781 2137.429688 C 1604.550781 2137.429688 1491.21875 2227.738281 1503.308594 2255.550781 C 1515.398438 2283.359375 1643.101562 2442.589844 1759.800781 2510.351562 C 1759.800781 2510.351562 1628.179688 2452.980469 1523.558594 2365.230469 C 1418.941406 2277.488281 1418.941406 2277.488281 1418.941406 2277.488281 C 1418.941406 2277.488281 1263.699219 2402.359375 1175.941406 2439.46875 "/>
<path fill-rule="evenodd" fill="rgb(69.117737%, 89.46991%, 92.735291%)" fill-opacity="1" d="M 1925.5 2137.03125 C 1925.5 2137.03125 1655.519531 2361.449219 1685.890625 2369.890625 C 1716.261719 2378.320312 1928.871094 2145.460938 1925.5 2137.03125 "/>
<path fill-rule="evenodd" fill="rgb(100%, 100%, 100%)" fill-opacity="1" d="M 1994.691406 2175.839844 C 1994.691406 2175.839844 1878.25 2273.710938 1900.191406 2273.710938 C 1922.128906 2273.710938 2020 2182.578125 1994.691406 2175.839844 "/>
<path fill-rule="evenodd" fill="rgb(100%, 100%, 100%)" fill-opacity="1" d="M 2030.121094 2225.609375 C 2030.121094 2225.609375 1953.339844 2316.730469 1965.160156 2319.261719 C 1976.96875 2321.789062 2030.121094 2245.859375 2030.121094 2225.609375 "/>
<path fill-rule="evenodd" fill="rgb(69.117737%, 89.46991%, 92.735291%)" fill-opacity="1" d="M 2064.710938 2230.671875 C 2064.710938 2230.671875 2029.269531 2288.050781 2041.929688 2285.519531 C 2054.589844 2282.980469 2061.328125 2255.140625 2062.179688 2269.488281 C 2063.019531 2283.828125 2003.960938 2355.539062 2018.308594 2356.378906 C 2032.648438 2357.230469 2068.929688 2279.621094 2075.679688 2257.671875 C 2082.429688 2235.738281 2064.710938 2230.671875 2064.710938 2230.671875 "/>
<path fill-rule="evenodd" fill="rgb(100%, 100%, 100%)" fill-opacity="1" d="M 2090.871094 2266.949219 C 2090.871094 2266.949219 2053.738281 2456.789062 2058.808594 2471.128906 C 2063.859375 2485.480469 2112.800781 2296.488281 2111.109375 2282.988281 C 2109.429688 2269.488281 2090.871094 2266.949219 2090.871094 2266.949219 "/>
<path fill-rule="evenodd" fill="rgb(69.117737%, 89.46991%, 92.735291%)" fill-opacity="1" d="M 2154.140625 2300.699219 C 2154.140625 2300.699219 2135.578125 2417.980469 2142.328125 2403.640625 C 2149.078125 2389.300781 2165.949219 2343.738281 2166.800781 2374.109375 C 2167.640625 2404.480469 2187.050781 2311.679688 2181.988281 2306.609375 C 2176.921875 2301.550781 2154.140625 2300.699219 2154.140625 2300.699219 "/>
<path fill-rule="evenodd" fill="rgb(100%, 100%, 100%)" fill-opacity="1" d="M 2414 1699.988281 C 2414 1699.988281 2272.261719 1846.789062 2295.039062 1856.921875 C 2317.820312 1867.039062 2370.96875 1830.761719 2381.941406 1805.449219 C 2392.910156 1780.140625 2430.871094 1704.210938 2414 1699.988281 "/>
<path fill-rule="evenodd" fill="rgb(69.117737%, 89.46991%, 92.735291%)" fill-opacity="1" d="M 2513.558594 1874.628906 C 2513.558594 1874.628906 2328.789062 1993.601562 2349.878906 1968.289062 C 2370.96875 1942.980469 2358.320312 1935.378906 2311.070312 1969.128906 C 2263.820312 2002.878906 2306.851562 2007.949219 2324.570312 2000.351562 C 2342.289062 1992.75 2583.589844 1865.359375 2513.558594 1874.628906 "/>
<path fill-rule="evenodd" fill="rgb(100%, 100%, 100%)" fill-opacity="1" d="M 2355.789062 2023.128906 C 2303.480469 2049.28125 2204.769531 2119.308594 2225.859375 2131.121094 C 2246.949219 2142.941406 2384.480469 2018.910156 2355.789062 2023.128906 "/>
<path fill-rule="evenodd" fill="rgb(100%, 100%, 100%)" fill-opacity="1" d="M 2456.191406 2012.160156 C 2430.039062 2036.628906 2295.890625 2078.808594 2314.449219 2095.691406 C 2333.011719 2112.558594 2482.351562 2022.28125 2456.191406 2012.160156 "/>
<path fill-rule="evenodd" fill="rgb(69.117737%, 89.46991%, 92.735291%)" fill-opacity="1" d="M 2497.53125 2037.46875 C 2497.53125 2037.46875 2483.191406 2104.128906 2392.921875 2142.941406 C 2302.640625 2181.75 2297.570312 2146.308594 2323.730469 2126.898438 C 2349.890625 2107.5 2376.039062 2097.371094 2364.230469 2126.058594 C 2352.421875 2154.75 2447.761719 2100.75 2463.789062 2072.058594 C 2479.820312 2043.378906 2496.691406 2017.21875 2497.53125 2037.46875 "/>
<path fill-rule="evenodd" fill="rgb(69.117737%, 89.46991%, 92.735291%)" fill-opacity="1" d="M 2539.71875 2050.121094 C 2503.441406 2070.378906 2489.949219 2091.46875 2505.96875 2091.46875 C 2522 2091.46875 2555.75 2067.839844 2539.71875 2050.121094 "/>
<path fill-rule="evenodd" fill="rgb(100%, 100%, 100%)" fill-opacity="1" d="M 1855.480469 2309.988281 C 1855.480469 2309.988281 1770.261719 2371.578125 1792.191406 2380.019531 C 1814.140625 2388.460938 1863.070312 2320.109375 1855.480469 2309.988281 "/>
<path fill-rule="evenodd" fill="rgb(100%, 100%, 100%)" fill-opacity="1" d="M 1879.941406 2342.890625 C 1879.941406 2342.890625 1798.101562 2417.140625 1820.039062 2417.980469 C 1841.980469 2418.828125 1897.660156 2347.109375 1879.941406 2342.890625 "/>
<path fill-rule="evenodd" fill="rgb(69.117737%, 89.46991%, 92.735291%)" fill-opacity="1" d="M 1910.308594 2073.75 C 1910.308594 2073.75 1739.039062 2173.308594 1754.21875 2179.21875 C 1769.410156 2185.128906 1932.25 2070.378906 1910.308594 2073.75 "/>
<path fill-rule="evenodd" fill="rgb(100%, 100%, 100%)" fill-opacity="1" d="M 1821.71875 2155.589844 C 1821.71875 2155.589844 1609.949219 2304.078125 1631.039062 2305.769531 C 1652.128906 2307.460938 1836.070312 2163.191406 1821.71875 2155.589844 "/>
<path fill-rule="evenodd" fill="rgb(100%, 100%, 100%)" fill-opacity="1" d="M 1668.171875 2144.621094 C 1660.570312 2149.679688 1555.949219 2231.53125 1572.828125 2239.121094 C 1589.699219 2246.710938 1675.761719 2161.5 1668.171875 2144.621094 "/>
<path fill-rule="evenodd" fill="rgb(100%, 100%, 100%)" fill-opacity="1" d="M 1741.558594 2042.539062 C 1736.5 2045.070312 1658.039062 2110.03125 1674.910156 2113.410156 C 1691.78125 2116.78125 1747.46875 2045.070312 1741.558594 2042.539062 "/>
<path fill-rule="evenodd" fill="rgb(100%, 100%, 100%)" fill-opacity="1" d="M 1828.460938 1996.96875 C 1820.871094 2006.261719 1750 2048.429688 1777 2052.660156 C 1804 2056.878906 1845.339844 2007.941406 1828.460938 1996.96875 "/>
<path fill-rule="evenodd" fill="rgb(69.117737%, 89.46991%, 92.735291%)" fill-opacity="1" d="M 1913.679688 1991.910156 C 1913.679688 1991.910156 1813.28125 2082.191406 1836.058594 2082.191406 C 1858.839844 2082.191406 1922.121094 2009.628906 1913.679688 1991.910156 "/>
<path fill-rule="evenodd" fill="rgb(100%, 100%, 100%)" fill-opacity="1" d="M 1534.011719 2234.898438 C 1534.011719 2234.898438 1584.628906 2385.078125 1738.191406 2484.640625 C 1738.191406 2484.640625 1535.699219 2391.828125 1534.011719 2234.898438 "/>
<path fill-rule="evenodd" fill="rgb(100%, 100%, 100%)" fill-opacity="1" d="M 2622.390625 1711.800781 C 2622.390625 1711.800781 2686.511719 1885.601562 2646.019531 2064.46875 C 2646.019531 2064.46875 2718.570312 1868.730469 2622.390625 1711.800781 "/>
<path fill-rule="evenodd" fill="rgb(69.117737%, 89.46991%, 92.735291%)" fill-opacity="1" d="M 1814.121094 2113.410156 C 1814.121094 2113.410156 1873.179688 2346.269531 2131.359375 2378.328125 C 2131.359375 2378.328125 1890.058594 2299.019531 1814.121094 2113.410156 "/>
<path fill-rule="evenodd" fill="rgb(69.117737%, 89.46991%, 92.735291%)" fill-opacity="1" d="M 1711.191406 2184.269531 C 1711.191406 2184.269531 1716.25 2378.328125 1922.109375 2415.460938 C 1922.109375 2415.460938 1739.871094 2356.398438 1711.191406 2184.269531 "/>
<path fill-rule="evenodd" fill="rgb(100%, 100%, 100%)" fill-opacity="1" d="M 1955.859375 2385.078125 C 1955.859375 2385.078125 2068.921875 2455.960938 2148.230469 2413.769531 C 2148.230469 2413.769531 2021.671875 2479.578125 1955.859375 2385.078125 "/>
<path fill-rule="evenodd" fill="rgb(69.117737%, 89.46991%, 92.735291%)" fill-opacity="1" d="M 2313.589844 1711.800781 C 2323.71875 1718.550781 2597.078125 1887.289062 2355.769531 2224.769531 C 2355.769531 2224.769531 2521.140625 2076.289062 2470.519531 1883.921875 C 2470.519531 1883.921875 2418.210938 1753.988281 2313.589844 1711.800781 "/>
<path fill-rule="evenodd" fill="rgb(69.117737%, 89.46991%, 92.735291%)" fill-opacity="1" d="M 2484.011719 1782.679688 C 2484.011719 1782.679688 2568.390625 1902.480469 2529.578125 2034.101562 C 2529.578125 2034.101562 2610.570312 1873.789062 2484.011719 1782.679688 "/>
<path fill-rule="evenodd" fill="rgb(100%, 100%, 100%)" fill-opacity="1" d="M 2089.378906 1932.75 C 2096.769531 1962.308594 2149.730469 2070.710938 2215.011719 2058.390625 C 2280.300781 2046.070312 2253.210938 1975.859375 2201.46875 1924.121094 C 2149.730469 1872.390625 2083.21875 1887.171875 2089.378906 1932.75 "/>
<path fill-rule="evenodd" fill="rgb(69.117737%, 89.46991%, 92.735291%)" fill-opacity="1" d="M 2310.988281 2193.699219 C 2310.988281 2193.699219 2429.109375 2214.800781 2415.050781 2217.621094 C 2400.988281 2220.429688 2340.519531 2214.800781 2310.988281 2193.699219 "/>
<path fill-rule="evenodd" fill="rgb(69.117737%, 89.46991%, 92.735291%)" fill-opacity="1" d="M 2309.578125 2235.890625 C 2309.578125 2235.890625 2406.609375 2252.761719 2389.730469 2261.210938 C 2372.859375 2269.640625 2309.578125 2235.890625 2309.578125 2235.890625 "/>
<path fill-rule="evenodd" fill="rgb(8.676147%, 9.295654%, 16.023254%)" fill-opacity="1" d="M 1535.328125 2339.859375 C 1535.328125 2339.859375 1594.390625 2379.238281 1501.578125 2424.238281 C 1408.769531 2469.238281 1346.890625 2443.921875 1382.050781 2466.421875 C 1417.210938 2488.921875 1505.789062 2493.140625 1543.761719 2455.171875 C 1581.730469 2417.210938 1585.949219 2384.859375 1535.328125 2339.859375 "/>
<path fill-rule="evenodd" fill="rgb(8.676147%, 9.295654%, 16.023254%)" fill-opacity="1" d="M 1945.929688 2536.730469 C 1945.929688 2536.730469 2089.359375 2531.109375 2031.710938 2605.628906 C 1974.050781 2680.160156 1892.5 2692.808594 1948.738281 2688.601562 C 2004.988281 2684.390625 2096.410156 2692.140625 2103.441406 2623.238281 C 2110.46875 2554.328125 2110.46875 2554.328125 2110.46875 2554.328125 L 2192.03125 2516.359375 C 2192.03125 2516.359375 2159.691406 2541.671875 2161.089844 2582.460938 C 2161.089844 2582.460938 2161.089844 2523.398438 2242.648438 2529.019531 C 2324.210938 2534.640625 2342.488281 2592.289062 2274.988281 2633.078125 C 2207.488281 2673.859375 2183.589844 2635.890625 2183.589844 2635.890625 C 2183.589844 2635.890625 2168.128906 2654.171875 2176.570312 2669.640625 C 2185 2685.101562 2106.25 2761.039062 2106.25 2761.039062 C 2106.25 2761.039062 2140 2724.480469 2218.75 2687.921875 C 2297.488281 2651.359375 2336.871094 2683.699219 2398.738281 2672.449219 C 2460.609375 2661.199219 2497.171875 2613.390625 2497.171875 2613.390625 C 2497.171875 2613.390625 2384.679688 2680.878906 2342.488281 2648.550781 C 2342.488281 2648.550781 2321.398438 2645.730469 2329.828125 2606.359375 C 2338.269531 2566.988281 2298.898438 2516.371094 2244.058594 2506.519531 L 2246.171875 2470.660156 C 2246.171875 2470.660156 2160.390625 2495.628906 2113.289062 2508.980469 C 2066.179688 2522.339844 1967.75 2483.320312 1967.75 2483.320312 L 2001.488281 2525.5 C 2001.488281 2525.5 1969.148438 2522.691406 1945.929688 2536.730469 "/>
<path fill-rule="evenodd" fill="rgb(8.676147%, 9.295654%, 16.023254%)" fill-opacity="1" d="M 2513.070312 2397.058594 C 2513.070312 2397.058594 2667.050781 2343.28125 2694.46875 2397.058594 C 2721.890625 2450.851562 2532.058594 2606.941406 2532.058594 2606.941406 C 2532.058594 2606.941406 2584.800781 2553.148438 2690.261719 2570.019531 C 2795.71875 2586.898438 2810.480469 2728.21875 2726.121094 2778.839844 C 2726.121094 2778.839844 2814.699219 2770.410156 2818.921875 2683.921875 C 2823.140625 2597.449219 2785.179688 2563.699219 2731.390625 2544.71875 C 2677.601562 2525.730469 2669.171875 2500.421875 2715.570312 2435.03125 C 2761.96875 2369.640625 2925.449219 2349.601562 3008.761719 2387.570312 C 3092.070312 2425.539062 3050.949219 2496.199219 3050.949219 2496.199219 C 3050.949219 2496.199219 3101.570312 2494.089844 3075.199219 2413.941406 C 3048.839844 2333.789062 2928.609375 2340.109375 2879.039062 2344.339844 C 2829.46875 2348.550781 2832.648438 2214.621094 2957.089844 2160.828125 C 3081.539062 2107.039062 3178.570312 2103.878906 3192.269531 2175.589844 C 3205.988281 2247.308594 3176.460938 2273.671875 3141.648438 2258.910156 C 3141.648438 2258.910156 3191.21875 2322.191406 3219.699219 2242.03125 C 3248.171875 2161.878906 3226.019531 2113.371094 3138.488281 2093.328125 C 3050.949219 2073.289062 3005.621094 2065.910156 3077.339844 1960.449219 C 3149.050781 1854.980469 3233.421875 1810.691406 3317.800781 1838.109375 C 3402.160156 1865.53125 3412.710938 1892.960938 3412.710938 1892.960938 C 3412.710938 1892.960938 3440.128906 1817.019531 3324.121094 1793.820312 C 3208.109375 1770.621094 3151.160156 1884.511719 3096.320312 1823.351562 C 3041.480469 1762.179688 3178.578125 1614.53125 3343.101562 1601.878906 C 3507.628906 1589.21875 3545.589844 1639.839844 3539.269531 1760.070312 C 3539.269531 1760.070312 3592 1652.488281 3459.121094 1563.898438 C 3326.230469 1475.308594 3121.628906 1719.988281 3089.988281 1682.019531 C 3089.988281 1682.019531 3096.320312 1612.421875 3079.441406 1540.699219 C 3079.441406 1540.699219 3237.640625 1591.320312 3296.699219 1418.359375 C 3296.699219 1418.359375 3136.398438 1591.320312 3085.78125 1494.300781 C 3035.148438 1397.269531 3056.238281 1388.839844 2997.179688 1365.628906 C 2938.121094 1342.429688 2887.5 1407.820312 2887.5 1407.820312 C 2887.5 1407.820312 2961.328125 1340.320312 2986.640625 1403.601562 C 3011.949219 1466.878906 2925.46875 1492.191406 2925.46875 1492.191406 C 2925.46875 1492.191406 3035.148438 1454.230469 3045.699219 1530.160156 C 3056.238281 1606.089844 3052.019531 1616.640625 3020.390625 1606.089844 C 2988.75 1595.539062 2940.238281 1635.621094 2942.339844 1667.261719 C 2942.339844 1667.261719 2973.980469 1595.539062 3007.730469 1679.910156 C 3041.480469 1764.289062 2940.230469 1819.128906 2948.671875 1905.609375 C 2957.109375 1992.089844 2870.640625 2170.328125 2822.121094 2235.71875 C 2773.609375 2301.121094 2752.519531 2362.28125 2689.238281 2343.300781 C 2625.960938 2324.320312 2552.128906 2364.390625 2513.070312 2397.058594 "/>
<path fill-rule="evenodd" fill="rgb(93.423462%, 11.938477%, 57.928467%)" fill-opacity="1" d="M 1546.730469 1921.640625 C 1546.730469 1921.640625 1316.828125 2134.679688 1352.691406 2149.441406 C 1388.539062 2164.210938 1616.339844 1864.691406 1546.730469 1921.640625 "/>
<path fill-rule="evenodd" fill="rgb(100%, 100%, 100%)" fill-opacity="1" d="M 2678.328125 2279.148438 C 2724.730469 2251.730469 2781.679688 2222.191406 2758.480469 2258.050781 C 2735.28125 2293.910156 2718.398438 2322.378906 2702.578125 2309.730469 C 2686.761719 2297.078125 2678.320312 2289.691406 2678.328125 2279.148438 "/>
<path fill-rule="evenodd" fill="rgb(93.423462%, 11.938477%, 57.928467%)" fill-opacity="1" d="M 2018.089844 1588.359375 C 2018.089844 1588.359375 2288.078125 1453.371094 2332.371094 1444.929688 C 2376.671875 1436.5 1952.710938 1636.878906 2018.089844 1588.359375 "/>
<path fill-rule="evenodd" fill="rgb(93.423462%, 11.938477%, 57.928467%)" fill-opacity="1" d="M 1612.589844 2485.320312 C 1661.109375 2500.089844 1589.390625 2542.269531 1589.390625 2542.269531 C 1589.390625 2542.269531 1630.519531 2497.980469 1612.589844 2485.320312 "/>
<path fill-rule="evenodd" fill="rgb(93.423462%, 11.938477%, 57.928467%)" fill-opacity="1" d="M 1828.808594 2572.859375 C 1872.039062 2570.75 1950.089844 2585.511719 1939.539062 2609.769531 C 1929 2634.019531 1917.398438 2635.078125 1884.699219 2607.660156 C 1852.011719 2580.238281 1829.859375 2584.460938 1828.808594 2572.859375 "/>
<path fill-rule="evenodd" fill="rgb(100%, 100%, 100%)" fill-opacity="1" d="M 2761.011719 2120.53125 C 2807.421875 2093.109375 2864.359375 2063.578125 2841.160156 2099.441406 C 2817.960938 2135.300781 2801.078125 2163.78125 2785.261719 2151.121094 C 2769.441406 2138.460938 2761.011719 2131.078125 2761.011719 2120.53125 "/>
<path fill-rule="evenodd" fill="rgb(37.510681%, 9.269714%, 7.931519%)" fill-opacity="1" d="M 830.503906 1937.699219 C 830.503906 1937.699219 921.699219 1834.058594 1012.898438 1912.820312 C 1104.089844 1991.589844 1017.039062 2078.640625 907.191406 2140.820312 C 797.339844 2202.988281 701.996094 2346.011719 701.996094 2346.011719 C 701.996094 2346.011719 722.726562 2306.628906 865.738281 2248.589844 C 1008.75 2190.550781 1102.019531 2229.929688 1087.511719 2333.570312 C 1087.511719 2333.570312 1099.949219 2254.808594 1141.398438 2236.160156 C 1182.851562 2217.5 1280.269531 2140.820312 1298.921875 2055.839844 C 1317.578125 1970.859375 1232.589844 1914.898438 1133.109375 1983.300781 C 1133.109375 1983.300781 1251.25 1914.898438 1265.761719 2026.820312 C 1280.269531 2138.738281 1077.148438 2217.5 1023.261719 2176.050781 C 969.371094 2134.601562 1081.289062 2101.429688 1085.441406 2008.171875 C 1089.578125 1914.898438 940.355469 1780.179688 830.503906 1937.699219 "/>
<path fill-rule="evenodd" fill="rgb(59.327698%, 10.705566%, 12.207031%)" fill-opacity="1" d="M 1202.320312 1648.539062 C 1202.320312 1648.539062 1497.628906 1358.871094 1587.621094 1645.730469 C 1587.621094 1645.730469 1492 1451.671875 1202.320312 1648.539062 "/>
<path fill-rule="evenodd" fill="rgb(59.327698%, 10.705566%, 12.207031%)" fill-opacity="1" d="M 847.96875 1755.410156 C 847.96875 1755.410156 1227.640625 1600.730469 1120.769531 1943.839844 C 1120.769531 1943.839844 1292.320312 1555.730469 847.96875 1755.410156 "/>
<path fill-rule="evenodd" fill="rgb(59.327698%, 10.705566%, 12.207031%)" fill-opacity="1" d="M 2008.910156 1033.761719 C 2028.589844 1033.761719 2177.648438 842.519531 2382.949219 901.578125 C 2588.25 960.628906 2450.441406 1233.429688 2450.441406 1233.429688 C 2450.441406 1233.429688 2517.929688 1025.320312 2397.011719 949.390625 C 2276.078125 873.449219 2104.519531 960.628906 2008.910156 1033.761719 "/>
<path fill-rule="evenodd" fill="rgb(59.327698%, 10.705566%, 12.207031%)" fill-opacity="1" d="M 1625.300781 1192.371094 C 1625.300781 1192.371094 1858.71875 1133.308594 1749.039062 1389.230469 C 1749.039062 1389.230469 1847.46875 1330.179688 1813.71875 1223.308594 C 1779.980469 1116.441406 1625.300781 1192.371094 1625.300781 1192.371094 "/>
<path fill-rule="evenodd" fill="rgb(8.676147%, 9.295654%, 16.023254%)" fill-opacity="1" d="M 1614.320312 3161.21875 C 1614.320312 3161.21875 1889.359375 3193.289062 1960.230469 3090.351562 C 2031.101562 2987.421875 2014.230469 2963.800781 2014.230469 2963.800781 C 2014.230469 2963.800781 2181.289062 3066.730469 2317.960938 3041.421875 C 2454.640625 3016.109375 2515.390625 2909.800781 2525.519531 2823.738281 C 2525.519531 2823.738281 2593.019531 2867.621094 2461.390625 3011.039062 C 2461.390625 3011.039062 2694.261719 3152.789062 2581.199219 3215.21875 C 2581.199219 3215.21875 2586.269531 3009.359375 2431.019531 3061.671875 C 2275.78125 3113.980469 2074.980469 3053.230469 2054.730469 3036.351562 C 2054.730469 3036.351562 1966.980469 3260.78125 1614.320312 3161.21875 "/>
<path fill-rule="evenodd" fill="rgb(33.18634%, 8.595276%, 7.896423%)" fill-opacity="1" d="M 1565.359375 2602.671875 C 1565.359375 2602.671875 1696.980469 2568.929688 1693.601562 2764.671875 C 1690.230469 2960.398438 1396.621094 3027.898438 1396.621094 3027.898438 C 1396.621094 3027.898438 1680.101562 3014.398438 1720.601562 2852.410156 C 1761.101562 2690.421875 1680.101562 2565.550781 1565.359375 2602.671875 "/>
<path fill-rule="evenodd" fill="rgb(37.510681%, 9.269714%, 7.931519%)" fill-opacity="1" d="M 1198.628906 2583.980469 C 1198.628906 2583.980469 1489.71875 2653.578125 1363.160156 2919.351562 C 1363.160156 2919.351562 1531.898438 2594.519531 1198.628906 2583.980469 "/>
<path fill-rule="evenodd" fill="rgb(37.510681%, 9.269714%, 7.931519%)" fill-opacity="1" d="M 1010.910156 2550.230469 C 1010.910156 2550.230469 1255.589844 2609.289062 998.257812 2887.710938 C 998.257812 2887.710938 1129.03125 2826.539062 1139.578125 2659.910156 C 1150.121094 2493.28125 1010.910156 2550.230469 1010.910156 2550.230469 "/>
<path fill-rule="evenodd" fill="rgb(93.423462%, 11.938477%, 57.928467%)" fill-opacity="1" d="M 1454.988281 2604.488281 C 1454.988281 2604.488281 1619.511719 2585.511719 1653.261719 2714.179688 C 1687.011719 2842.839844 1547.789062 2920.878906 1547.789062 2920.878906 C 1547.789062 2920.878906 1640.609375 2825.96875 1577.328125 2716.289062 C 1514.050781 2606.601562 1368.5 2638.25 1454.988281 2604.488281 "/>
<path fill-rule="evenodd" fill="rgb(97.088623%, 60.9375%, 82.382202%)" fill-opacity="1" d="M 2073 2897.660156 C 2073 2897.660156 2134.171875 2766.878906 2264.941406 2754.230469 C 2395.71875 2741.578125 2444.230469 2762.671875 2378.839844 2796.421875 C 2313.460938 2830.160156 2030.820312 2956.71875 2073 2897.660156 "/>
<path fill-rule="evenodd" fill="rgb(93.423462%, 11.938477%, 57.928467%)" fill-opacity="1" d="M 1785.820312 1737.238281 C 1785.820312 1737.238281 1891.28125 1641.269531 1889.171875 1672.898438 C 1887.058594 1704.539062 1810.078125 1758.328125 1790.039062 1757.28125 C 1770 1756.21875 1777.378906 1747.78125 1785.820312 1737.238281 "/>
<path fill-rule="evenodd" fill="rgb(97.088623%, 60.9375%, 82.382202%)" fill-opacity="1" d="M 1758.410156 2870.960938 C 1758.410156 2870.960938 1952.460938 2807.679688 1965.121094 2883.609375 C 1977.769531 2959.539062 1695.128906 2932.121094 1758.410156 2870.960938 "/>
<path fill-rule="evenodd" fill="rgb(69.117737%, 89.46991%, 92.735291%)" fill-opacity="1" d="M 3109.839844 1951.339844 C 3109.839844 1951.339844 3167.5 1868.371094 3247.648438 1858.53125 C 3327.808594 1848.679688 3369.988281 1874 3369.988281 1874 C 3369.988281 1874 3216.71875 1858.53125 3109.839844 1951.339844 "/>
<path fill-rule="evenodd" fill="rgb(97.088623%, 60.9375%, 82.382202%)" fill-opacity="1" d="M 2571.269531 2627.71875 C 2571.269531 2627.71875 2672.511719 2564.441406 2716.109375 2593.96875 C 2759.691406 2623.5 2728.761719 2654.429688 2676.730469 2653.03125 C 2624.699219 2651.621094 2513.609375 2676.929688 2571.269531 2627.71875 "/>
<path fill-rule="evenodd" fill="rgb(93.423462%, 11.938477%, 57.928467%)" fill-opacity="1" d="M 1628.898438 1732.898438 C 1652.800781 1732.898438 1683.738281 1744.148438 1772.328125 1664 C 1860.921875 1583.839844 1925.609375 1530.410156 2074.660156 1478.378906 C 2223.710938 1426.351562 2277.140625 1371.511719 2384.019531 1361.671875 C 2490.890625 1351.820312 2714.46875 1327.921875 2715.878906 1292.761719 C 2717.289062 1257.609375 2753.851562 1235.109375 2638.539062 1243.550781 C 2523.230469 1251.988281 2287 1294.179688 2198.410156 1319.480469 C 2109.820312 1344.789062 1927.011719 1451.671875 1867.949219 1485.410156 C 1808.890625 1519.160156 1628.898438 1701.960938 1628.898438 1732.898438 "/>
<path fill-rule="evenodd" fill="rgb(44.885254%, 7.542419%, 19.218445%)" fill-opacity="1" d="M 1330.511719 2038.410156 C 1330.511719 2038.410156 1423.308594 1935.050781 1421.199219 1899.199219 C 1419.089844 1863.339844 1360.03125 1819.050781 1360.03125 1819.050781 C 1360.03125 1819.050781 1435.96875 1831.699219 1450.730469 1844.359375 C 1465.488281 1857.019531 1524.558594 1827.480469 1554.089844 1734.679688 C 1583.609375 1641.871094 1480.261719 1546.949219 1480.261719 1546.949219 C 1480.261719 1546.949219 1568.851562 1544.839844 1598.378906 1610.230469 C 1627.910156 1675.609375 1627.910156 1675.609375 1627.910156 1675.609375 L 1729.160156 1555.390625 L 1665.871094 1658.738281 C 1665.871094 1658.738281 1874.699219 1401.421875 2193.191406 1314.941406 C 2511.691406 1228.460938 2870.269531 1182.058594 2963.078125 1182.058594 C 3055.890625 1182.058594 3140.261719 1209.480469 3140.261719 1209.480469 L 3142.359375 1253.769531 C 3142.359375 1253.769531 3117.050781 1234.78125 3087.519531 1222.128906 C 3058 1209.480469 3043.230469 1169.398438 2899.800781 1203.148438 C 2756.371094 1236.898438 2728.949219 1247.441406 2728.949219 1247.441406 C 2728.949219 1247.441406 2760.589844 1306.5 2764.808594 1321.269531 C 2769.03125 1336.03125 2851.289062 1336.03125 2851.289062 1336.03125 C 2851.289062 1336.03125 2733.171875 1321.269531 2693.089844 1411.960938 C 2653.011719 1502.660156 2653.011719 1504.769531 2653.011719 1504.769531 C 2653.011719 1504.769531 2636.140625 1447.820312 2646.691406 1414.070312 C 2657.230469 1380.320312 2566.53125 1414.070312 2566.53125 1414.070312 C 2566.53125 1414.070312 2699.421875 1302.28125 2699.421875 1283.300781 C 2699.421875 1264.320312 2646.679688 1264.308594 2484.269531 1272.75 C 2321.859375 1281.191406 2311.308594 1327.589844 2311.308594 1327.589844 L 2391.46875 1403.53125 C 2391.46875 1403.53125 2302.878906 1319.148438 2235.378906 1321.269531 C 2167.878906 1323.378906 2047.648438 1397.199219 2047.648438 1397.199219 C 2047.648438 1397.199219 2138.351562 1392.980469 2138.351562 1466.808594 C 2138.351562 1540.628906 2136.25 1452.039062 2136.25 1452.039062 L 2136.25 1513.210938 C 2136.25 1513.210938 2045.550781 1418.289062 1999.140625 1428.839844 C 1952.738281 1439.390625 1811.421875 1578.589844 1811.421875 1578.589844 C 1811.421875 1578.589844 1904.21875 1557.511719 1910.550781 1616.570312 C 1916.878906 1675.628906 1916.878906 1675.628906 1916.878906 1675.628906 C 1916.878906 1675.628906 1885.21875 1589.148438 1767.101562 1629.230469 C 1648.988281 1669.300781 1684.839844 1724.140625 1684.839844 1724.140625 C 1684.839844 1724.140625 1760.78125 1741.011719 1760.78125 1770.550781 C 1760.78125 1770.550781 1714.371094 1741.011719 1670.078125 1743.128906 C 1625.789062 1745.238281 1608.910156 1783.199219 1608.910156 1783.199219 L 1701.71875 1833.820312 C 1701.71875 1833.820312 1638.441406 1785.308594 1575.160156 1831.71875 C 1511.878906 1878.121094 1381.101562 2067.949219 1330.511719 2038.410156 "/>
</svg>
